<svg xmlns="http://www.w3.org/2000/svg" xmlns:xlink="http://www.w3.org/1999/xlink" width="410.371" height="377.956" viewBox="0 0 410.371 377.956">
  <defs>
    <clipPath id="clip-path">
      <path id="Path_3971" data-name="Path 3971" d="M383,395.3H115.5L98,262.5c0-4.4-4.4-48,0-48L243,87c4.4,0,199,126.9,199,131.3Z"/>
    </clipPath>
  </defs>
  <g id="log-in" transform="translate(-45.894 -76.5)">
    <g id="OBJECTS">
      <g id="Group_241" data-name="Group 241">
        <g id="Group_239" data-name="Group 239">
          <g id="Group_216" data-name="Group 216" opacity="0.342">
            <path id="Path_3836" data-name="Path 3836" d="M362.6,164.4c-14.1-4.9-26.7-8.4-35.9-19.1-11.2-12.8-18.4-27.6-30-40.2-13.3-14.3-29.9-24.1-52-24.2s-44.5,5.3-60.5,18c-29.9,23.8-18.1,60.7-35.8,89C137.1,206,111.7,214.5,95.8,230c-17.4,17.1-21.5,42.9-9.8,63.1a39.221,39.221,0,0,0,12.4,13.6c16.8,11,40.9,6.3,62.1,8.2,37.1,3.4,68.8,28.4,106.2,27.7,26.2-.5,49.6-13.8,68.2-29.1,6.1-5,12.1-10.5,19.7-13.8,13.9-6.2,30.8-4.5,46.3-6.9,20.3-3.1,39-14,48.5-29.3s9.3-34.8-1.6-49.4c-8.6-11.6-22.8-19.5-36.6-27C395.5,178.8,379.8,170.4,362.6,164.4Z" fill="#a5c5d3"/>
          </g>
          <g id="Group_217" data-name="Group 217">
            <path id="Path_3837" data-name="Path 3837" d="M177.3,137.3a25.445,25.445,0,0,0-41.6,8.6c-1.6,4.1-2.2,8.6-2.8,13a4.9,4.9,0,0,1-.8,2.4c-.8,1-2.2,1.1-3.4,1.2-5,.5-10,1.8-14.1,4.6-4.1,2.9-7.2,7.5-7.4,12.5s2.9,10.2,7.6,11.7c1.3.4,2.9.6,3.8,1.6a6.03,6.03,0,0,1,1.2,2.4c1.6,4.9,3.4,10,6.8,13.8,3.4,3.9,8.9,6.4,13.9,5,1.5-.4,3-1.2,4.5-1.3,3-.1,5.4,2.5,8.1,3.9,3.6,1.9,8.1,1.6,11.9-.1a27.132,27.132,0,0,0,9.4-7.8,4.861,4.861,0,0,1,1.7-1.5c1.2-.5,2.5.1,3.7.5,5.2,1.7,11,.5,16.2-1.4,4.4-1.6,8.7-3.7,11.8-7.2,5.9-6.5,6-17.5.2-24.1,5.7-4.9,5.3-14.8-.2-20-5.4-5.2-14.3-5.8-21.1-2.6-1.2-5.8-4.1-9.9-9.3-15.1" fill="#f5fbff"/>
          </g>
          <g id="Group_218" data-name="Group 218">
            <path id="Path_3838" data-name="Path 3838" d="M398,83.6a45.627,45.627,0,0,1,7.9,5.6c10.5,9.2,16.8,22.1,16.4,36.2-1.3,45.1-50.9,64.8-97,44-3.1-1.4-4.1-3.7-8-2.6-2.7.7-5.1,2.2-7.7,2.8-1.7.4-6.1,1.3-5-2.1.4-1.1,2.5-2.3,3.3-3.2,2.1-2.4,5.7-6.4,4.7-9.8-.7-2.4-3.1-4.2-4.5-6.2-3.4-5-6.3-10.4-7.6-16.3-4.8-21.6,11.8-39.9,30.4-47.8C350.2,75.9,379,73,398,83.6Z" fill="#f5fbff"/>
          </g>
          <g id="Group_219" data-name="Group 219">
            <path id="Path_3839" data-name="Path 3839" d="M365.9,145.5H354.5a1.58,1.58,0,0,1-1.6-1.6V102.6a1.58,1.58,0,0,1,1.6-1.6h11.4a1.58,1.58,0,0,1,1.6,1.6v41.3A1.58,1.58,0,0,1,365.9,145.5Z" fill="#d38467"/>
            <path id="Path_3840" data-name="Path 3840" d="M337.8,128.9V117.5a1.58,1.58,0,0,1,1.6-1.6h41.3a1.58,1.58,0,0,1,1.6,1.6v11.4a1.58,1.58,0,0,1-1.6,1.6H339.4A1.577,1.577,0,0,1,337.8,128.9Z" fill="#d38467"/>
          </g>
          <g id="Group_223" data-name="Group 223">
            <g id="Group_220" data-name="Group 220">
              <path id="Path_3841" data-name="Path 3841" d="M177.9,184.1c-1,1.6-1.5,2.4-2.1,3.3s-1.2,1.8-2.3,3.3a5.545,5.545,0,0,1-.6.8c-2.1,2.7-4.7,5.9-8.5,5.2a4.608,4.608,0,0,1-3.1-2,4.465,4.465,0,0,1-.6-2.8,19.506,19.506,0,0,1,3.7-9.2c.4-.5.7-1,1-1.4a58.413,58.413,0,0,1,3.7-4.8c1.9-2.2,3.8-3.6,6.7-4a4.26,4.26,0,0,1,3.6,1.1C182.5,176.9,179.8,181.1,177.9,184.1Z" fill="#b2d8c7"/>
            </g>
            <g id="Group_221" data-name="Group 221">
              <path id="Path_3842" data-name="Path 3842" d="M177.9,184.1c-1,1.6-1.5,2.4-2.1,3.3a72.523,72.523,0,0,0-10.4-6.1,58.413,58.413,0,0,1,3.7-4.8c1.9-2.2,3.8-3.6,6.7-4a4.26,4.26,0,0,1,3.6,1.1C182.5,176.9,179.8,181.1,177.9,184.1Z" fill="#3f7289"/>
            </g>
            <g id="Group_222" data-name="Group 222" opacity="0.201">
              <path id="Path_3843" data-name="Path 3843" d="M177.9,184.1c-1,1.6-1.5,2.4-2.1,3.3s-1.2,1.8-2.3,3.3a5.545,5.545,0,0,1-.6.8c-2.1,2.7-4.7,5.9-8.5,5.2a4.608,4.608,0,0,1-3.1-2,4.465,4.465,0,0,1-.6-2.8,15.945,15.945,0,0,1,.6-3h0a4.206,4.206,0,0,0,3.1,2c3.7.7,6.4-2.6,8.5-5.2.2-.3.4-.5.6-.8,1.1-1.5,1.7-2.4,2.3-3.3s1.1-1.8,2.1-3.3a35.783,35.783,0,0,0,2.1-3.9C182.1,177.5,179.6,181.3,177.9,184.1Z" fill="#3f7289"/>
            </g>
          </g>
          <g id="Group_227" data-name="Group 227">
            <g id="Group_224" data-name="Group 224">
              <path id="Path_3844" data-name="Path 3844" d="M158.8,154.5c1,1.2,1.7,1.9,2.3,2.7s1.2,1.5,2.1,2.9a3.509,3.509,0,0,1,.5.8c1.7,2.5,3.7,5.6,2.1,8.6a4.3,4.3,0,0,1-2.5,2.1,4.349,4.349,0,0,1-2.5-.3c-2.6-1-5.1-3.5-6.8-5.7a12.5,12.5,0,0,0-.9-1.2c-.9-1.3-1.7-2.3-3.1-4.5a9.274,9.274,0,0,1-1.6-6.8,3.515,3.515,0,0,1,2-2.7C153.9,148.7,156.7,152.1,158.8,154.5Z" fill="#f2f2f2"/>
            </g>
            <g id="Group_225" data-name="Group 225">
              <path id="Path_3845" data-name="Path 3845" d="M158.8,154.5c1,1.2,1.7,1.9,2.3,2.7a54.161,54.161,0,0,0-8,7.1c-.9-1.3-1.7-2.3-3.1-4.5a9.274,9.274,0,0,1-1.6-6.8,3.515,3.515,0,0,1,2-2.7C153.9,148.7,156.7,152.1,158.8,154.5Z" fill="#d38467"/>
            </g>
            <g id="Group_226" data-name="Group 226" opacity="0.301">
              <path id="Path_3846" data-name="Path 3846" d="M158.8,154.5c1,1.2,1.7,1.9,2.3,2.7s1.2,1.5,2.1,2.9a3.509,3.509,0,0,1,.5.8c1.7,2.5,3.7,5.6,2.1,8.6a4.3,4.3,0,0,1-2.5,2.1,4.349,4.349,0,0,1-2.5-.3,14.144,14.144,0,0,1-2.4-1.3h0a4.027,4.027,0,0,0,2.5-2.1c1.6-3-.4-6.1-2.1-8.6-.2-.3-.3-.5-.5-.8-1-1.4-1.5-2.1-2.1-2.9-.6-.7-1.2-1.4-2.3-2.7a35.756,35.756,0,0,0-2.7-2.9C154.3,149.2,156.9,152.3,158.8,154.5Z" fill="#c48a74"/>
            </g>
          </g>
          <g id="Group_229" data-name="Group 229">
            <g id="Group_228" data-name="Group 228">
              <path id="Path_3847" data-name="Path 3847" d="M143.8,179.8l-.1-.1h-.2v.2l.1.1h.2a.139.139,0,0,0,0-.2Z" fill="#f2f2f2"/>
            </g>
          </g>
          <g id="Group_232" data-name="Group 232">
            <path id="Path_3848" data-name="Path 3848" d="M155.8,184.7c0,4.3-5.3,7.8-11.8,7.8s-11.8-3.5-11.8-7.8c-.7-6.9,5.3-7.8,11.8-7.8C150.5,176.8,156.7,177.2,155.8,184.7Z" fill="#e2a864"/>
            <ellipse id="Ellipse_173" data-name="Ellipse 173" cx="11.8" cy="7.8" rx="11.8" ry="7.8" transform="translate(132.1 174)" fill="#f4c587"/>
            <g id="Group_231" data-name="Group 231">
              <g id="Group_230" data-name="Group 230">
                <path id="Path_3849" data-name="Path 3849" d="M134.9,183.2c6-.9,12-1.4,18-1.8a.3.3,0,0,0,0-.6,137.6,137.6,0,0,0-18.1,2.2c-.1,0-.1.2.1.2Z" fill="#e2a864"/>
              </g>
            </g>
          </g>
          <path id="Path_3850" data-name="Path 3850" d="M364.3,172.7c22.5-1.2,43.8-10.8,51.5-34.2a43.378,43.378,0,0,0,2.2-15.6c-.5-8.1-3.9-15.8-8.8-22.3a52.888,52.888,0,0,0-8.3-8.7" fill="none" stroke="#6c858e" stroke-linecap="round" stroke-linejoin="round" stroke-miterlimit="10" stroke-width="1"/>
          <path id="Path_3851" data-name="Path 3851" d="M351.4,172.5c2,.2,4.1.3,6.1.3" fill="none" stroke="#6c858e" stroke-linecap="round" stroke-linejoin="round" stroke-miterlimit="10" stroke-width="1"/>
          <path id="Path_3852" data-name="Path 3852" d="M307.6,145.8c2.6,3.3,5.7,6.7,6.1,10.6.5,4.9-3.5,7.6-6.3,11.3-1.6,2.2,1.6,1.6,3,1.6a19.352,19.352,0,0,0,5.8-1.2,25.49,25.49,0,0,1,3.9-1.3c2.9-.5,5.7.5,8.5,1.3a103.61,103.61,0,0,0,14.1,3.3" fill="none" stroke="#6c858e" stroke-linecap="round" stroke-linejoin="round" stroke-miterlimit="10" stroke-width="1"/>
          <path id="Path_3853" data-name="Path 3853" d="M302.3,136.1a28.534,28.534,0,0,0,3,6.4" fill="none" stroke="#6c858e" stroke-linecap="round" stroke-linejoin="round" stroke-miterlimit="10" stroke-width="1"/>
          <path id="Path_3854" data-name="Path 3854" d="M385,82.9a68.614,68.614,0,0,0-28.4-4.1,69.544,69.544,0,0,0-12,1.8c-14.8,3.5-29.9,10.4-38.2,23.6a37.922,37.922,0,0,0-5.2,28.2" fill="none" stroke="#6c858e" stroke-linecap="round" stroke-linejoin="round" stroke-miterlimit="10" stroke-width="1"/>
          <path id="Path_3855" data-name="Path 3855" d="M395,87.8a58.59,58.59,0,0,0-5.5-3" fill="none" stroke="#6c858e" stroke-linecap="round" stroke-linejoin="round" stroke-miterlimit="10" stroke-width="1"/>
          <path id="Path_3856" data-name="Path 3856" d="M302.5,102.8a46.613,46.613,0,0,1,16.9-16.4" fill="none" stroke="#6c858e" stroke-linecap="round" stroke-linejoin="round" stroke-miterlimit="10" stroke-width="1"/>
          <path id="Path_3857" data-name="Path 3857" d="M305,93a21.868,21.868,0,0,1,5.9-4.6" fill="none" stroke="#6c858e" stroke-linecap="round" stroke-linejoin="round" stroke-miterlimit="10" stroke-width="1"/>
          <path id="Path_3858" data-name="Path 3858" d="M399.1,166.9a36.289,36.289,0,0,0,19.1-23.3" fill="none" stroke="#6c858e" stroke-linecap="round" stroke-linejoin="round" stroke-miterlimit="10" stroke-width="1"/>
          <path id="Path_3859" data-name="Path 3859" d="M408.2,165.1a35.056,35.056,0,0,0,9-9.4" fill="none" stroke="#6c858e" stroke-linecap="round" stroke-linejoin="round" stroke-miterlimit="10" stroke-width="1"/>
          <g id="Group_233" data-name="Group 233">
            <ellipse id="Ellipse_174" data-name="Ellipse 174" cx="4.6" cy="4.4" rx="4.6" ry="4.4" transform="translate(336.2 151.2)" fill="#a5c5d3" opacity="0.342"/>
            <ellipse id="Ellipse_175" data-name="Ellipse 175" cx="4.6" cy="4.4" rx="4.6" ry="4.4" transform="translate(354.9 151.2)" fill="#a5c5d3" opacity="0.342"/>
            <ellipse id="Ellipse_176" data-name="Ellipse 176" cx="4.6" cy="4.4" rx="4.6" ry="4.4" transform="translate(373.6 151.2)" fill="#a5c5d3" opacity="0.342"/>
          </g>
          <circle id="Ellipse_177" data-name="Ellipse 177" cx="2.7" cy="2.7" r="2.7" transform="translate(116.9 153.3)" fill="#f5fbff"/>
          <circle id="Ellipse_178" data-name="Ellipse 178" cx="5.5" cy="5.5" r="5.5" transform="translate(115.3 136)" fill="#f5fbff"/>
          <circle id="Ellipse_179" data-name="Ellipse 179" cx="5.5" cy="5.5" r="5.5" transform="translate(107.4 202.2)" fill="#f5fbff"/>
          <g id="Group_234" data-name="Group 234">
            <path id="Path_3860" data-name="Path 3860" d="M117.9,185.7a40.117,40.117,0,0,0-4.2,6.5" fill="none" stroke="#6c858e" stroke-linecap="round" stroke-linejoin="round" stroke-miterlimit="10" stroke-width="1"/>
            <path id="Path_3861" data-name="Path 3861" d="M118.5,190.1a11.667,11.667,0,0,0-2.6,4.4" fill="none" stroke="#6c858e" stroke-linecap="round" stroke-linejoin="round" stroke-miterlimit="10" stroke-width="1"/>
          </g>
          <path id="Path_3862" data-name="Path 3862" d="M152.4,126l1.5,2.6.3.3,2.5,1.3a.7.7,0,0,1,.1,1.2l-2.3,1.7c-.1.1-.2.2-.2.3l-1.1,2.8a.593.593,0,0,1-1.1.1l-1.5-2.6-.3-.3-2.5-1.3a.7.7,0,0,1-.1-1.2l2.3-1.7c.1-.1.2-.2.2-.3l1.1-2.8A.593.593,0,0,1,152.4,126Z" fill="#f4c587"/>
          <path id="Path_3863" data-name="Path 3863" d="M182.6,160.6l-2.2.9a.215.215,0,0,0-.2.2l-1.3,1.9c-.2.3-.8.3-.9-.1l-.9-2.1a.215.215,0,0,0-.2-.2l-2-1.3a.49.49,0,0,1,.1-.9l2.2-.9a.215.215,0,0,0,.2-.2l1.3-1.9c.2-.3.8-.3.9.1l.9,2.1a.215.215,0,0,0,.2.2l2,1.3C183,159.9,182.9,160.4,182.6,160.6Z" fill="#f4c587"/>
          <path id="Path_3864" data-name="Path 3864" d="M127.8,164.6l-1.8,1.6c-.1.1-.1.2-.2.3l-.7,2.3a.526.526,0,0,1-.9.2l-1.6-1.8c-.1-.1-.2-.1-.3-.2l-2.3-.6a.526.526,0,0,1-.2-.9l1.8-1.6c.1-.1.1-.2.2-.3l.7-2.3a.534.534,0,0,1,.9-.2l1.6,1.8c.1.1.2.1.3.2l2.3.6A.526.526,0,0,1,127.8,164.6Z" fill="#f4c587"/>
          <circle id="Ellipse_180" data-name="Ellipse 180" cx="2.1" cy="2.1" r="2.1" transform="translate(161.9 136.5)" fill="none" stroke="#6c858e" stroke-linecap="round" stroke-linejoin="round" stroke-miterlimit="10" stroke-width="1"/>
          <circle id="Ellipse_181" data-name="Ellipse 181" cx="3.2" cy="3.2" r="3.2" transform="translate(130.7 150.7)" fill="none" stroke="#6c858e" stroke-linecap="round" stroke-linejoin="round" stroke-miterlimit="10" stroke-width="1"/>
          <circle id="Ellipse_182" data-name="Ellipse 182" cx="3.2" cy="3.2" r="3.2" transform="translate(276.1 97.9)" fill="none" stroke="#6c858e" stroke-linecap="round" stroke-linejoin="round" stroke-miterlimit="10" stroke-width="1"/>
          <circle id="Ellipse_183" data-name="Ellipse 183" cx="3.2" cy="3.2" r="3.2" transform="translate(209.9 104.5)" fill="none" stroke="#6c858e" stroke-linecap="round" stroke-linejoin="round" stroke-miterlimit="10" stroke-width="1"/>
          <circle id="Ellipse_184" data-name="Ellipse 184" cx="3.2" cy="3.2" r="3.2" transform="translate(139.4 223.9)" fill="none" stroke="#6c858e" stroke-linecap="round" stroke-linejoin="round" stroke-miterlimit="10" stroke-width="1"/>
          <circle id="Ellipse_185" data-name="Ellipse 185" cx="3.2" cy="3.2" r="3.2" transform="translate(427.9 159.3)" fill="none" stroke="#6c858e" stroke-linecap="round" stroke-linejoin="round" stroke-miterlimit="10" stroke-width="1"/>
          <circle id="Ellipse_186" data-name="Ellipse 186" cx="3.2" cy="3.2" r="3.2" transform="translate(413.3 222.1)" fill="none" stroke="#6c858e" stroke-linecap="round" stroke-linejoin="round" stroke-miterlimit="10" stroke-width="1"/>
          <circle id="Ellipse_187" data-name="Ellipse 187" cx="4.9" cy="4.9" r="4.9" transform="translate(430.3 175.2)" fill="none" stroke="#6c858e" stroke-linecap="round" stroke-linejoin="round" stroke-miterlimit="10" stroke-width="1"/>
          <circle id="Ellipse_188" data-name="Ellipse 188" cx="4.9" cy="4.9" r="4.9" transform="translate(259.9 79.2)" fill="none" stroke="#6c858e" stroke-linecap="round" stroke-linejoin="round" stroke-miterlimit="10" stroke-width="1"/>
          <circle id="Ellipse_189" data-name="Ellipse 189" cx="3.2" cy="3.2" r="3.2" transform="translate(161.6 213.9)" fill="none" stroke="#6c858e" stroke-linecap="round" stroke-linejoin="round" stroke-miterlimit="10" stroke-width="1"/>
          <path id="Path_3865" data-name="Path 3865" d="M308.4,207.6c9.2,0,18.4,0,27.7-.1a5.508,5.508,0,0,0,3.3-.7,5.917,5.917,0,0,0,1.8-2.8c1.3-3.4,2.7-6.8,4-10.2,1.1,3.8,2.1,7.5,3.2,11.3a13.753,13.753,0,0,0,4.1-6,36.089,36.089,0,0,1,3.3,8.8,162.645,162.645,0,0,0,6-16.5c1.2,9.3,2.2,18.5,3,27.8a69.486,69.486,0,0,0,3.5-14.3,62.473,62.473,0,0,0,12.9-1.1" fill="none" stroke="#6c858e" stroke-linecap="round" stroke-linejoin="round" stroke-miterlimit="10" stroke-width="1"/>
          <g id="Group_235" data-name="Group 235">
            <line id="Line_1" data-name="Line 1" y1="4.6" transform="translate(197.4 112.7)" fill="none" stroke="#6c858e" stroke-linecap="round" stroke-linejoin="round" stroke-miterlimit="10" stroke-width="1"/>
            <line id="Line_2" data-name="Line 2" x2="4.7" transform="translate(195 115)" fill="none" stroke="#6c858e" stroke-linecap="round" stroke-linejoin="round" stroke-miterlimit="10" stroke-width="1"/>
          </g>
          <g id="Group_236" data-name="Group 236">
            <line id="Line_3" data-name="Line 3" y1="4.6" transform="translate(291.2 77)" fill="none" stroke="#6c858e" stroke-linecap="round" stroke-linejoin="round" stroke-miterlimit="10" stroke-width="1"/>
            <line id="Line_4" data-name="Line 4" x2="4.7" transform="translate(288.9 79.3)" fill="none" stroke="#6c858e" stroke-linecap="round" stroke-linejoin="round" stroke-miterlimit="10" stroke-width="1"/>
          </g>
          <g id="Group_237" data-name="Group 237">
            <line id="Line_5" data-name="Line 5" y1="4.6" transform="translate(436.8 241.2)" fill="none" stroke="#6c858e" stroke-linecap="round" stroke-linejoin="round" stroke-miterlimit="10" stroke-width="1"/>
            <line id="Line_6" data-name="Line 6" x2="4.6" transform="translate(434.5 243.5)" fill="none" stroke="#6c858e" stroke-linecap="round" stroke-linejoin="round" stroke-miterlimit="10" stroke-width="1"/>
          </g>
          <g id="Group_238" data-name="Group 238">
            <line id="Line_7" data-name="Line 7" y1="4.6" transform="translate(415.1 177)" fill="none" stroke="#6c858e" stroke-linecap="round" stroke-linejoin="round" stroke-miterlimit="10" stroke-width="1"/>
            <line id="Line_8" data-name="Line 8" x2="4.6" transform="translate(412.8 179.3)" fill="none" stroke="#6c858e" stroke-linecap="round" stroke-linejoin="round" stroke-miterlimit="10" stroke-width="1"/>
          </g>
        </g>
        <g id="Group_240" data-name="Group 240">
          <line id="Line_9" data-name="Line 9" y1="4.6" transform="translate(288.8 110.5)" fill="none" stroke="#6c858e" stroke-linecap="round" stroke-linejoin="round" stroke-miterlimit="10" stroke-width="1"/>
          <line id="Line_10" data-name="Line 10" x2="4.6" transform="translate(286.5 112.8)" fill="none" stroke="#6c858e" stroke-linecap="round" stroke-linejoin="round" stroke-miterlimit="10" stroke-width="1"/>
        </g>
      </g>
      <g id="Group_301" data-name="Group 301">
        <g id="Group_298" data-name="Group 298">
          <g id="Group_251" data-name="Group 251">
            <g id="Group_242" data-name="Group 242">
              <path id="Path_3866" data-name="Path 3866" d="M385.9,369.7c-.1-5.4,3.6-10,7.1-14.1,2.8-3.2,5.9-6.5,9.9-7.8,7.7-2.6,16.6,2.5,24.1-.6,4.6-1.9,8.2-6.6,13.1-6.4,1.9.1,3.6.9,5.4,1.3a11.378,11.378,0,0,0,9.1-1.9c1.6,1.8.1,4.7-2,5.8s-4.6,1.3-6.6,2.4c-5.8,3.2-5.4,11.9-9.9,16.7-3.5,3.8-9.4,4.4-13.3,7.8-3.6,3.1-5.1,8.3-9.1,10.8-3.3,2.1-7.7,2-11.2,3.7-3.2,1.5-5.6,4.5-8.2,6.9-2.6,2.5-5.9,4.7-9.5,4.3" fill="#4ea1a5"/>
            </g>
            <g id="Group_250" data-name="Group 250">
              <g id="Group_243" data-name="Group 243" opacity="0.15">
                <path id="Path_3867" data-name="Path 3867" d="M455.2,341.8a5.181,5.181,0,0,1-2.6,4.3c-2.1,1.1-4.6,1.3-6.6,2.4-5.8,3.2-5.4,11.9-9.9,16.7-3.5,3.8-9.4,4.4-13.3,7.8-3.6,3.1-5.1,8.3-9.1,10.8-3.3,2.1-7.7,2-11.2,3.7-3.2,1.5-5.6,4.5-8.2,6.9-2.6,2.5-5.9,4.7-9.5,4.3l.8-21.6c3.1-1.9,6-4.1,9.4-4.9,3.9-.9,8.1.3,11.8-1.1,4.5-1.6,7.1-6.3,11.2-8.5,4.5-2.5,10.4-1.8,14.7-4.7,5.5-3.7,7-12.3,13.4-14.1,2.3-.7,4.7-.2,7-.9A3.6,3.6,0,0,0,455.2,341.8Z" fill="#4ea1a5"/>
              </g>
              <g id="Group_245" data-name="Group 245">
                <g id="Group_244" data-name="Group 244">
                  <path id="Path_3868" data-name="Path 3868" d="M454.4,341.2c-1.2,2.2-3.6,3.1-5.9,3.5-2.6.4-5.4.5-7.6,2.2a13.977,13.977,0,0,0-3.8,5.5,47.257,47.257,0,0,1-3.1,6.4,18.069,18.069,0,0,1-5,5.3,17.4,17.4,0,0,1-3.3,1.8,22.088,22.088,0,0,1-3.7.8,7.935,7.935,0,0,0-6,3.4c-1.4,1.8-2.3,3.9-3.7,5.7a12.8,12.8,0,0,1-6.9,4,30.343,30.343,0,0,1-4.2.6,14.718,14.718,0,0,1-2.1,0,5.106,5.106,0,0,0-2.1.3c-.5.2-.1,1,.4.7a5.5,5.5,0,0,1,2.2-.2,12.1,12.1,0,0,0,1.9-.1c1.2-.1,2.4-.3,3.6-.5a15.109,15.109,0,0,0,6.4-3,20.261,20.261,0,0,0,4.1-5.5,14.634,14.634,0,0,1,2.1-2.8,7.306,7.306,0,0,1,3.4-1.7c1.3-.3,2.7-.4,4-.8a12.153,12.153,0,0,0,3.3-1.4,17.422,17.422,0,0,0,5.3-4.8,29.1,29.1,0,0,0,3.5-6.2c.9-2.2,1.8-4.6,3.5-6.3,2.2-2.3,5.4-2.3,8.4-2.9,2.3-.4,5-1.6,5.7-4.1-.1,0-.4-.1-.4.1Z" fill="#3e8989"/>
                </g>
              </g>
              <g id="Group_247" data-name="Group 247">
                <g id="Group_246" data-name="Group 246">
                  <path id="Path_3869" data-name="Path 3869" d="M441.5,344.2a13.526,13.526,0,0,0-6.4,2.4,19.057,19.057,0,0,0-4.5,4.9,24.369,24.369,0,0,1-4.3,5.3,10.756,10.756,0,0,1-6.4,2.4c-4.4.3-8.9-.8-13.3.3a10.868,10.868,0,0,0-5.3,3.2,22.775,22.775,0,0,0-3.3,5,29.4,29.4,0,0,1-3.9,6,16.106,16.106,0,0,1-7.4,4.2.413.413,0,0,0,.2.8,16.444,16.444,0,0,0,6.6-3.3,21.054,21.054,0,0,0,3.9-5c2-3.5,3.7-7.7,7.6-9.6,4.2-2,9.1-.8,13.6-1a15.889,15.889,0,0,0,6.1-1.3,12.918,12.918,0,0,0,4.6-4.4c1.5-2.1,2.8-4.4,4.8-6.2a14.1,14.1,0,0,1,7.5-3.5c.1.1.1-.2-.1-.2Z" fill="#3e8989"/>
                </g>
              </g>
              <g id="Group_249" data-name="Group 249">
                <g id="Group_248" data-name="Group 248">
                  <path id="Path_3870" data-name="Path 3870" d="M430.4,348.3a23.422,23.422,0,0,1-7.7,4.3,18.62,18.62,0,0,1-4.7.9,35.327,35.327,0,0,1-4.6-.1,30.6,30.6,0,0,0-8,0,16.653,16.653,0,0,0-6,2.5,9.651,9.651,0,0,0-4.1,5.4c-.1.4.5.6.6.2,1.1-4.3,5.9-6.6,9.9-7.4a32.15,32.15,0,0,1,8.2,0,22.235,22.235,0,0,0,8.9-1,23.851,23.851,0,0,0,7.9-4.5c.1-.2-.2-.5-.4-.3Z" fill="#3e8989"/>
                </g>
              </g>
            </g>
          </g>
          <g id="Group_260" data-name="Group 260">
            <g id="Group_252" data-name="Group 252">
              <path id="Path_3871" data-name="Path 3871" d="M434.5,294.8c-2.5,3.5-5.4,6.9-6,11.1-.3,1.7-.2,3.4-.6,5.1-.6,2.5-2.3,4.7-3.7,6.9a12.188,12.188,0,0,0-2,4.5c-.4,1.6.1,3.1-.1,4.7-.5,5-5.1,8.4-9.4,11-2.1,1.3-4.3,2.6-5.5,4.7-1.6,2.9-1,6.5-2.2,9.6a.31.31,0,0,1-.1.2,12.805,12.805,0,0,1-5.8,5.7c-2.4,1.3-5,2.3-7.3,3.8-5.9,3.8-9.2,10.5-14.3,15.3a9.034,9.034,0,0,1-.4-2.8c.1-4.4,2.9-9,2.4-13.6-.3-2.2-1.2-4.2-1.4-6.4s-.2-4.5-.2-6.8c0-3.7.7-7.9,4.5-10.1,2.8-1.6,7-1.9,9.1-4.1,2.3-2.4,1.2-5.7,1.1-8.7-.1-6.1,5.2-12,12.6-13.9,3.4-.9,6.9-2,8.6-5.4,1.6-3.4,2-7.5,4.8-10.3,2.9-3,7.6-3.5,11-5.9,2.7-1.9,4.5-4.8,6.7-7.2.2-.2.4-.5.7-.5h0c.6-.1,1,.7,1.1,1.3C439.2,287.2,437,291.4,434.5,294.8Z" fill="#7cbfc1"/>
            </g>
            <g id="Group_253" data-name="Group 253" opacity="0.338">
              <path id="Path_3872" data-name="Path 3872" d="M434.5,294.8c-2.5,3.5-5.4,6.9-6,11.1-.3,1.7-.2,3.4-.6,5.1-.6,2.5-2.3,4.7-3.7,6.9a12.188,12.188,0,0,0-2,4.5c-.4,1.6.1,3.1-.1,4.7-.5,5-5.1,8.4-9.4,11-2.1,1.3-4.3,2.6-5.5,4.7-1.6,2.9-1,6.5-2.2,9.6a.31.31,0,0,1-.1.2,12.805,12.805,0,0,1-5.8,5.7c-2.4,1.3-5,2.3-7.3,3.8-5.9,3.8-9.2,10.5-14.3,15.3a9.034,9.034,0,0,1-.4-2.8c1.1-6.5,3-12.7,7.3-17.6,2.4-2.7,5.4-4.8,7.6-7.7,2.7-3.5,4-7.9,5.5-12,1.6-4.1,3.7-8.4,7.4-10.8,3.2-2,6.7-3,9.7-5.3a18.022,18.022,0,0,0,5.1-5.2c1.4-2.5,1.5-5.4,1.5-8.2a23.807,23.807,0,0,1,.1-3.8,8.839,8.839,0,0,1,2.1-4.6c1.6-1.7,3.9-2.5,5.7-3.9a21.424,21.424,0,0,0,4.9-6.3c.6-1.1,1.1-2.3,1.7-3.4a40.377,40.377,0,0,1,1.5-3.9c.6-.1,1,.7,1.1,1.3C439.2,287.2,437,291.4,434.5,294.8Z" fill="#7cbfc1"/>
            </g>
            <g id="Group_255" data-name="Group 255">
              <g id="Group_254" data-name="Group 254">
                <path id="Path_3873" data-name="Path 3873" d="M437.3,283c.3,3.8-1.9,7.1-4.3,9.8-2.4,2.6-5.4,4.6-7.8,7.2a17.3,17.3,0,0,0-3,4.1,20.19,20.19,0,0,0-1.8,5.4,28.111,28.111,0,0,1-1.8,5.6,17.858,17.858,0,0,1-3,4.2,12.527,12.527,0,0,1-4.7,2.8,20.127,20.127,0,0,0-5.2,2.3c-3,2-5.3,5.1-7.2,8.1a15.794,15.794,0,0,0-2.2,5.4,36.983,36.983,0,0,1-1.4,5.5,16.93,16.93,0,0,1-6.1,8.3,33.957,33.957,0,0,1-5,2.6,14.009,14.009,0,0,0-4.2,3,23.167,23.167,0,0,0-4.8,8.7,21.723,21.723,0,0,0-.7,2.4c-.1.4.5.6.6.2,1.1-3.3,2.1-6.6,4.2-9.4a12.725,12.725,0,0,1,3.8-3.5c1.7-1,3.5-1.6,5.2-2.6a16.575,16.575,0,0,0,6.7-7.4,27.4,27.4,0,0,0,1.7-4.8,30.3,30.3,0,0,1,1.6-5.9,27.228,27.228,0,0,1,3.2-5.1,21.039,21.039,0,0,1,3.8-4.1,15.209,15.209,0,0,1,5.2-2.7,16.067,16.067,0,0,0,4.7-2.4,16.653,16.653,0,0,0,5.4-8.5c.5-1.9.9-3.8,1.5-5.7a15.691,15.691,0,0,1,2.7-4.9c2.3-2.7,5.2-4.8,7.8-7.3,2.4-2.4,4.8-5.3,5.3-8.8a10.454,10.454,0,0,0,0-2.5c.1-.2-.2-.2-.2,0Z" fill="#4ea1a5"/>
              </g>
            </g>
            <g id="Group_257" data-name="Group 257">
              <g id="Group_256" data-name="Group 256">
                <path id="Path_3874" data-name="Path 3874" d="M435.9,284.9a32.86,32.86,0,0,1-8.2,7.6c-3,2-6.4,3.3-8.6,6.3-2.1,2.7-2.9,6.1-4.1,9.2a21.861,21.861,0,0,1-6.1,8.6,34.6,34.6,0,0,1-4.5,2.9,22.374,22.374,0,0,0-4.5,2.7c-2.4,2-3.6,4.9-4.4,7.8-.9,3.1-1.3,6.4-2.6,9.3a16.527,16.527,0,0,1-7.2,7.8c-3,1.7-6.4,2.9-9,5.4a12.992,12.992,0,0,0-3.9,8.7,19.418,19.418,0,0,0,.2,2.4.307.307,0,0,0,.6-.1,12.53,12.53,0,0,1,2.8-9.5c2.3-2.7,5.7-4,8.8-5.7a17.821,17.821,0,0,0,7.5-6.9,32.437,32.437,0,0,0,3-9.1c.7-3,1.5-6.1,3.6-8.5,2.4-2.7,6.1-3.6,8.9-5.7a21.316,21.316,0,0,0,6.5-7.5c1.6-3.1,2.3-6.5,3.9-9.5A12.254,12.254,0,0,1,422,297a44.335,44.335,0,0,1,4.6-2.9,29.983,29.983,0,0,0,8.1-6.9c.6-.7,1.1-1.4,1.6-2.1.1-.2-.2-.4-.4-.2Z" fill="#4ea1a5"/>
              </g>
            </g>
            <g id="Group_259" data-name="Group 259">
              <g id="Group_258" data-name="Group 258">
                <path id="Path_3875" data-name="Path 3875" d="M435.7,289.3a21.1,21.1,0,0,1-5.3,8.7,14.348,14.348,0,0,0-2.9,3.6,13.821,13.821,0,0,0-1,4,18.727,18.727,0,0,1-.9,4.6c-.6,1.5-1.9,2.5-2.9,3.7a14.038,14.038,0,0,0-1.8,4.2,23.029,23.029,0,0,1-1.8,4.3,18.134,18.134,0,0,1-6.6,6.3c-2.6,1.5-5.4,2.8-7.3,5.1s-2.7,5.2-3.4,8c-.8,2.9-1.6,5.8-3.6,8.1a30.205,30.205,0,0,1-7.9,5.9,37.8,37.8,0,0,0-4.3,2.6,4.079,4.079,0,0,0-1.9,3.7c.1.5.8.3.8-.2-.2-1.6,1.4-2.8,2.6-3.6s2.5-1.5,3.8-2.2a32.649,32.649,0,0,0,7-5.2,17.426,17.426,0,0,0,3.9-7.5c.8-2.8,1.3-5.8,3-8.3,1.7-2.6,4.6-4,7.3-5.5a18.172,18.172,0,0,0,6.4-5.6,17.207,17.207,0,0,0,2-3.8c.6-1.5.9-3.1,1.6-4.6s1.9-2.5,2.9-3.8a10.237,10.237,0,0,0,1.5-3.9,41.661,41.661,0,0,1,.8-4.9,9.406,9.406,0,0,1,3.1-4.5,21.665,21.665,0,0,0,5.4-9.1c-.1-.2-.4-.3-.5-.1Z" fill="#4ea1a5"/>
              </g>
            </g>
          </g>
          <g id="Group_269" data-name="Group 269">
            <g id="Group_261" data-name="Group 261">
              <path id="Path_3876" data-name="Path 3876" d="M419.2,350.2c-2.1,3.7-4,7.8-7.6,10.1-1.4.9-3,1.6-4.4,2.6-2.1,1.6-3.3,4-4.7,6.2a14.243,14.243,0,0,1-3.2,3.7c-1.3,1-2.9,1.2-4.3,2-4.3,2.6-5.5,8.2-6,13.2-.3,2.4-.5,5-2,7-1.9,2.7-5.5,3.6-7.8,6l-.1.1c-1.9,2-2.5,4.9-2.7,7.6-.2,2.8,0,5.5-.4,8.3-1,6.9-5.6,12.7-7.9,19.4a7.733,7.733,0,0,0,2.7-.8c4-1.9,6.9-6.4,11.3-7.9,2.1-.7,4.3-.6,6.4-1.4s4.2-1.7,6.2-2.7c3.4-1.6,6.9-3.9,7.3-8.3.3-3.3-1.2-7.1-.1-10,1.2-3.1,4.7-3.5,7.4-4.7,5.6-2.4,8.7-9.8,7.3-17.3-.6-3.4-1.1-7.1,1.2-10,2.4-2.9,6-5,7.3-8.7,1.5-3.9,0-8.4.7-12.5.6-3.2,2.4-6.1,3.7-9.1a1.412,1.412,0,0,0,.1-.9h0c-.2-.6-1-.6-1.6-.5C424.1,342.7,421.3,346.5,419.2,350.2Z" fill="#7cbfc1"/>
            </g>
            <g id="Group_262" data-name="Group 262" opacity="0.338">
              <path id="Path_3877" data-name="Path 3877" d="M419.2,350.2c-2.1,3.7-4,7.8-7.6,10.1-1.4.9-3,1.6-4.4,2.6-2.1,1.6-3.3,4-4.7,6.2a14.243,14.243,0,0,1-3.2,3.7c-1.3,1-2.9,1.2-4.3,2-4.3,2.6-5.5,8.2-6,13.2-.3,2.4-.5,5-2,7-1.9,2.7-5.5,3.6-7.8,6l-.1.1c-1.9,2-2.5,4.9-2.7,7.6-.2,2.8,0,5.5-.4,8.3-1,6.9-5.6,12.7-7.9,19.4a7.733,7.733,0,0,0,2.7-.8c5.4-3.7,10.3-8.1,12.9-14,1.4-3.3,2.1-7,3.7-10.2,2.1-3.9,5.5-6.9,8.6-10.1s6.1-6.9,6.7-11.2c.5-3.7-.1-7.3.7-11,.5-2.4,1.1-4.9,2.6-6.8a15.683,15.683,0,0,1,6.8-4.8,17.994,17.994,0,0,0,3.4-1.7,10.133,10.133,0,0,0,3.3-3.8c.9-2.1.6-4.6,1.1-6.9a20.137,20.137,0,0,1,3.7-7.1l2.4-3a38.857,38.857,0,0,0,2.9-3c-.2-.6-1-.6-1.6-.5C424.1,342.7,421.3,346.5,419.2,350.2Z" fill="#7cbfc1"/>
            </g>
            <g id="Group_264" data-name="Group 264">
              <g id="Group_263" data-name="Group 263">
                <path id="Path_3878" data-name="Path 3878" d="M428.7,342.4c-6.6,2.2-8,9.9-9.8,15.6a22.818,22.818,0,0,1-2.1,5.1,15.683,15.683,0,0,1-3.5,4.2c-1.4,1.2-2.9,2.3-4.3,3.5a15.651,15.651,0,0,0-3.3,4,12.472,12.472,0,0,0-1.7,4.9,22.4,22.4,0,0,0,.2,5.8c.3,4.2-1.5,7.9-3.6,11.4a17.883,17.883,0,0,1-3.6,4.6c-1.4,1.2-3.1,2.2-4.5,3.5a18.875,18.875,0,0,0-5.6,8.3,16.972,16.972,0,0,0-.7,5.5,20.992,20.992,0,0,1-.5,6.1c-1,3.4-3.4,6.3-6,8.7-.6.6-1.3,1.2-1.9,1.8-.3.3.1.8.4.5a26.966,26.966,0,0,0,6.8-7.5,14.028,14.028,0,0,0,1.7-4.7c.3-2.1.1-4.1.2-6.2a16,16,0,0,1,4.1-9.7,27.863,27.863,0,0,1,4-3.7,21.045,21.045,0,0,0,4.2-3.7,28.814,28.814,0,0,0,3-4.7,25.809,25.809,0,0,0,2.3-5.4,16.771,16.771,0,0,0,.3-5.9,18.171,18.171,0,0,1,.1-5.7c.9-3.7,3.4-6.4,6.3-8.8a44.675,44.675,0,0,0,4.1-3.5,15.663,15.663,0,0,0,2.8-4.4c1.4-3.2,2.1-6.7,3.2-10,1.1-3.1,2.6-6.2,5.3-8.2a7.086,7.086,0,0,1,2.1-1.1c.2-.1.2-.4,0-.3Z" fill="#4ea1a5"/>
              </g>
            </g>
            <g id="Group_266" data-name="Group 266">
              <g id="Group_265" data-name="Group 265">
                <path id="Path_3879" data-name="Path 3879" d="M427.3,344.6a31.531,31.531,0,0,0-3.7,10.4c-.6,3.7-.4,7.6-2.2,10.9-1.6,2.9-4.3,4.9-6.5,7.3a22.5,22.5,0,0,0-5.1,8.7,23.51,23.51,0,0,0-.9,5.3,28.788,28.788,0,0,1-.5,5.9c-.8,2.9-2.8,5.1-5.1,7a75.908,75.908,0,0,0-6.8,5.7,16.5,16.5,0,0,0-4.5,8.9c-.6,3.8,0,7.7-1.1,11.4a12.586,12.586,0,0,1-5.9,7.3,14.722,14.722,0,0,1-2.2,1c-.4.1-.2.7.2.6a12.416,12.416,0,0,0,7.2-5.3c2-3.1,2.2-6.7,2.3-10.2a28.8,28.8,0,0,1,.6-5.9,18.582,18.582,0,0,1,2.2-5c1.7-2.6,4.2-4.5,6.7-6.4,2.2-1.8,4.5-3.6,6-6.1a12.112,12.112,0,0,0,1.5-4.4c.3-2,.2-3.9.4-5.9a20.594,20.594,0,0,1,3.9-10.1c2-2.7,4.7-4.7,6.8-7.3a15.237,15.237,0,0,0,2.4-4.1,25.4,25.4,0,0,0,1-5.5,38.755,38.755,0,0,1,2.5-11.2c.4-.9.8-1.9,1.3-2.8-.1-.3-.4-.5-.5-.2Z" fill="#4ea1a5"/>
              </g>
            </g>
            <g id="Group_268" data-name="Group 268">
              <g id="Group_267" data-name="Group 267">
                <path id="Path_3880" data-name="Path 3880" d="M423.5,346.5a20.627,20.627,0,0,0-5.5,7.6,21.1,21.1,0,0,1-2.1,4.6,11.023,11.023,0,0,1-3.1,2.6c-2.3,1.4-4.5,2.7-5.6,5.3a9.732,9.732,0,0,1-1.1,2.3,9.5,9.5,0,0,1-1.6,1.9c-1.1,1.1-2.3,2-3.3,3.2a17.285,17.285,0,0,0-3.8,7.8c-.6,3.3-.3,6.8-1.4,10-2,5.7-8.4,7.8-11.4,12.8-1.8,3-2.3,6.5-2.7,9.9-.2,1.7-.3,3.5-.5,5.2-.2,1.4-.6,3.2-2.2,3.6-.5.1-.3.9.2.8,2.7-.7,2.8-4.3,3-6.5a44.641,44.641,0,0,1,1.5-9.6,16.52,16.52,0,0,1,2.1-4.2,23.448,23.448,0,0,1,3.1-3.2,37.137,37.137,0,0,0,6.1-5.8c1.9-2.6,2.2-5.8,2.4-8.9a22.364,22.364,0,0,1,.7-5.1,15.674,15.674,0,0,1,1.8-4.2,15.231,15.231,0,0,1,3-3.7,24.96,24.96,0,0,0,3.2-3.3c1-1.3,1.2-3,2.2-4.3a9.249,9.249,0,0,1,3.2-2.7,28.972,28.972,0,0,0,3.6-2.5,10.425,10.425,0,0,0,2.5-4,29.4,29.4,0,0,1,2.3-5.1,22.16,22.16,0,0,1,3.7-4.4s-.2-.2-.3-.1Z" fill="#4ea1a5"/>
              </g>
            </g>
          </g>
          <g id="Group_279" data-name="Group 279">
            <g id="Group_270" data-name="Group 270">
              <path id="Path_3881" data-name="Path 3881" d="M115,379.6c.1-5.4-3.5-10.1-7.1-14.2-2.8-3.2-5.8-6.5-9.8-7.9-7.7-2.6-16.5,2.5-24-.6-4.6-1.9-8.2-6.7-13.1-6.4-1.9.1-3.6,1-5.4,1.4a11.072,11.072,0,0,1-9-1.9c-1.6,1.8-.1,4.7,2,5.9,2.1,1.1,4.5,1.3,6.6,2.4,5.8,3.2,5.4,12,9.9,16.9,3.5,3.8,9.4,4.4,13.3,7.9,3.5,3.2,5.1,8.4,9,10.9,3.3,2.2,7.6,2,11.2,3.7,3.2,1.6,5.5,4.5,8.1,7s5.9,4.8,9.4,4.3" fill="#4ea1a5"/>
            </g>
            <g id="Group_278" data-name="Group 278">
              <g id="Group_271" data-name="Group 271" opacity="0.15">
                <path id="Path_3882" data-name="Path 3882" d="M45.9,351.5a5.053,5.053,0,0,0,2.6,4.3c2.1,1.1,4.5,1.3,6.6,2.4,5.7,3.2,5.4,12,9.9,16.9,3.5,3.8,9.4,4.4,13.2,7.9,3.5,3.2,5.1,8.4,9,10.9,3.3,2.2,7.6,2,11.2,3.7,3.2,1.6,5.5,4.5,8.1,7s5.9,4.8,9.4,4.3l-.8-21.8c-3-1.9-5.9-4.2-9.4-5-3.8-.9-8,.3-11.7-1.1-4.4-1.6-7-6.4-11.2-8.6-4.5-2.5-10.4-1.8-14.6-4.7-5.5-3.7-7-12.4-13.3-14.2-2.3-.7-4.7-.2-7-.9A4.425,4.425,0,0,1,45.9,351.5Z" fill="#4ea1a5"/>
              </g>
              <g id="Group_273" data-name="Group 273">
                <g id="Group_272" data-name="Group 272">
                  <path id="Path_3883" data-name="Path 3883" d="M46.4,351c.6,2.2,2.9,3.4,4.9,3.9,2.6.7,5.5.5,7.8,2,2.1,1.3,3.2,3.6,4.1,5.8a40.187,40.187,0,0,0,3.2,6.6c2.7,4.1,6.6,7.2,11.4,8a11.9,11.9,0,0,1,4.1,1.1,7.184,7.184,0,0,1,2.5,2.4c1.3,1.8,2.2,4,3.7,5.7a12.945,12.945,0,0,0,6.8,4.1,18.655,18.655,0,0,0,4,.7,14.768,14.768,0,0,0,2.1.1,5.332,5.332,0,0,1,2.5.2c.5.2.9-.5.4-.7-1.1-.5-2.5-.3-3.8-.3-1.2-.1-2.4-.2-3.6-.4a14.253,14.253,0,0,1-6.6-3c-3.4-3-4.3-8.6-9-10-1.3-.4-2.7-.5-4-.8a14.762,14.762,0,0,1-3.5-1.3,18.337,18.337,0,0,1-5.5-4.9,28.241,28.241,0,0,1-3.5-6.4,24.039,24.039,0,0,0-3.3-6.1c-2-2.3-4.8-2.7-7.6-3.1-2.7-.4-5.6-1.1-6.9-3.7,0-.3-.2-.1-.2.1Z" fill="#3e8989"/>
                </g>
              </g>
              <g id="Group_275" data-name="Group 275">
                <g id="Group_274" data-name="Group 274">
                  <path id="Path_3884" data-name="Path 3884" d="M59.5,354.2a14.845,14.845,0,0,1,9,5.2,41.944,41.944,0,0,1,3.1,5,10.652,10.652,0,0,0,3.5,3.8c3,1.8,6.5,2.4,9.6,4.1a15.321,15.321,0,0,1,4.2,3.4,22.183,22.183,0,0,0,3.7,3.8,12.743,12.743,0,0,0,10.5,2.2c.5-.1.3-.9-.2-.8a12.3,12.3,0,0,1-9.7-1.9,24,24,0,0,1-3.8-4,12.576,12.576,0,0,0-4-3.2c-3-1.7-6.5-2.3-9.5-3.9a10.518,10.518,0,0,1-4-4.1,52.108,52.108,0,0,0-3-4.6,14.084,14.084,0,0,0-9.4-5.3c-.2-.1-.2.2,0,.3Z" fill="#3e8989"/>
                </g>
              </g>
              <g id="Group_277" data-name="Group 277">
                <g id="Group_276" data-name="Group 276">
                  <path id="Path_3885" data-name="Path 3885" d="M70.3,358.3a22.748,22.748,0,0,0,6.8,4.2,21.5,21.5,0,0,0,8.7,1.4c2.8-.1,5.7-.6,8.6-.2a14.957,14.957,0,0,1,6.1,2.2,9.218,9.218,0,0,1,4.5,5.4c.1.4.7.2.6-.2-.9-4.3-5.4-6.8-9.3-7.8a24.272,24.272,0,0,0-7.6-.3c-3.2.3-6.3.5-9.4-.4a22.142,22.142,0,0,1-8.7-4.6c-.2-.1-.5.1-.3.3Z" fill="#3e8989"/>
                </g>
              </g>
            </g>
          </g>
          <g id="Group_288" data-name="Group 288">
            <g id="Group_280" data-name="Group 280">
              <path id="Path_3886" data-name="Path 3886" d="M67,304.9c2,3.8,4.5,7.6,4.7,11.9.1,1.7-.2,3.4,0,5.1.3,2.6,1.7,5,2.8,7.3a16.1,16.1,0,0,1,1.5,4.7c.2,1.7-.5,3.1-.5,4.7-.1,5.1,4.1,9,8,12.2,1.9,1.5,4,3.1,4.9,5.4,1.2,3.1.2,6.6,1,9.8,0,.1,0,.1.1.2a12.683,12.683,0,0,0,5,6.4c2.2,1.6,4.7,2.9,6.8,4.7,5.4,4.5,7.9,11.6,12.3,17a8.865,8.865,0,0,0,.7-2.8c.5-4.5-1.8-9.4-.8-13.9.5-2.1,1.7-4,2.1-6.2s.7-4.5,1-6.8c.4-3.7.3-8-3.3-10.7-2.6-2-6.7-2.7-8.5-5.1-2-2.6-.5-5.9-.1-8.9.9-6.1-3.8-12.6-10.9-15.4-3.2-1.3-6.6-2.8-7.9-6.4-1.2-3.6-1.1-7.8-3.5-10.9-2.5-3.4-7.1-4.4-10.2-7.2-2.5-2.2-3.9-5.3-5.8-8-.2-.2-.4-.5-.7-.6h0c-.6-.1-1,.5-1.2,1.1C63.2,296.7,64.9,301.1,67,304.9Z" fill="#7cbfc1"/>
            </g>
            <g id="Group_281" data-name="Group 281" opacity="0.338">
              <path id="Path_3887" data-name="Path 3887" d="M67,304.9c2,3.8,4.5,7.6,4.7,11.9.1,1.7-.2,3.4,0,5.1.3,2.6,1.7,5,2.8,7.3a16.1,16.1,0,0,1,1.5,4.7c.2,1.7-.5,3.1-.5,4.7-.1,5.1,4.1,9,8,12.2,1.9,1.5,4,3.1,4.9,5.4,1.2,3.1.2,6.6,1,9.8,0,.1,0,.1.1.2a12.683,12.683,0,0,0,5,6.4c2.2,1.6,4.7,2.9,6.8,4.7,5.4,4.5,7.9,11.6,12.3,17a8.865,8.865,0,0,0,.7-2.8c-.3-6.6-1.4-13.1-5.1-18.5-2.1-3-4.8-5.5-6.7-8.6-2.3-3.8-3-8.4-4.1-12.7s-2.6-8.8-6-11.7c-2.9-2.4-6.3-3.8-9-6.4a18.153,18.153,0,0,1-4.5-5.8c-1.1-2.6-.9-5.6-.5-8.4a24.5,24.5,0,0,0,.4-3.8,10.041,10.041,0,0,0-1.5-4.8c-1.3-1.9-3.6-3-5.2-4.6a20.081,20.081,0,0,1-4.1-6.9c-.5-1.2-.9-2.4-1.3-3.6-.1-.4-.9-4.1-1-4.1-.6-.1-1,.5-1.2,1.1C63.2,296.7,64.9,301.1,67,304.9Z" fill="#7cbfc1"/>
            </g>
            <g id="Group_283" data-name="Group 283">
              <g id="Group_282" data-name="Group 282">
                <path id="Path_3888" data-name="Path 3888" d="M65.3,292.6c-1.7,7.6,5.3,13,9.4,18.3a17.219,17.219,0,0,1,2.8,4.7,24.571,24.571,0,0,1,1.2,6c.4,3.5,1.1,6.9,3.3,9.8a14.173,14.173,0,0,0,3.6,3.3c1.6,1,3.5,1.6,5,2.8,3,2.1,5,5.7,6.6,8.9a15.981,15.981,0,0,1,1.8,6.1,55.418,55.418,0,0,0,.7,5.7,18.744,18.744,0,0,0,4.7,8.9c2.6,2.6,6.2,3.8,8.6,6.6a20.535,20.535,0,0,1,3.9,9.4c.2.8.3,1.6.5,2.5a.358.358,0,0,0,.7-.1,25.966,25.966,0,0,0-2.7-9.5,13.677,13.677,0,0,0-2.9-3.9,21.92,21.92,0,0,0-4.4-3.1,17.282,17.282,0,0,1-4.1-3.5,19.825,19.825,0,0,1-2.7-4.7,29.334,29.334,0,0,1-1.3-5.1,42.47,42.47,0,0,0-.8-6.1,25,25,0,0,0-2.3-5.3,34.606,34.606,0,0,0-2.9-4.5,14.438,14.438,0,0,0-3.9-3.5c-1.6-1-3.5-1.6-5-2.7a14.19,14.19,0,0,1-5.3-8.7c-.4-1.9-.5-3.9-.8-5.9a17.268,17.268,0,0,0-1.7-5.3c-1.6-3.1-4.2-5.6-6.5-8.2-2.5-2.8-5-6.1-5.4-10a8.677,8.677,0,0,1,.1-2.8c.1-.2-.2-.3-.2-.1Z" fill="#4ea1a5"/>
              </g>
            </g>
            <g id="Group_285" data-name="Group 285">
              <g id="Group_284" data-name="Group 284">
                <path id="Path_3889" data-name="Path 3889" d="M66.4,295a31.892,31.892,0,0,0,6.6,8.5c2.6,2.3,5.8,4.1,7.8,7,2,3,2.4,6.6,3.2,10a21.856,21.856,0,0,0,4.5,9,23.061,23.061,0,0,0,3.6,3.4c1.4,1.1,3,2,4.4,3.1,2.6,2.2,3.7,5.3,4.2,8.7.5,3.2.6,6.5,1.5,9.7a17.254,17.254,0,0,0,5.5,8.5c2.6,2.2,5.8,3.7,8.2,6.1a12.746,12.746,0,0,1,3.6,9.2,11.529,11.529,0,0,1-.3,2.6c-.1.4.5.5.6.2a12.113,12.113,0,0,0-1-9.5c-1.6-3-4.4-4.9-7.2-6.8a33.206,33.206,0,0,1-4.2-3.2,17.214,17.214,0,0,1-3.2-4.3c-1.6-3.1-1.9-6.6-2.3-10-.4-3.1-.8-6.4-2.5-9.1-1.9-3-5.3-4.4-7.9-6.7a20.674,20.674,0,0,1-6-8.6c-1.2-3.3-1.5-6.9-2.8-10.1a11.661,11.661,0,0,0-2.7-4.2,25.056,25.056,0,0,0-4-3.3,37,37,0,0,1-7.8-8c-.5-.8-1-1.5-1.5-2.3-.1-.3-.4-.1-.3.1Z" fill="#4ea1a5"/>
              </g>
            </g>
            <g id="Group_287" data-name="Group 287">
              <g id="Group_286" data-name="Group 286">
                <path id="Path_3890" data-name="Path 3890" d="M66.1,299.3a22.322,22.322,0,0,0,3.6,8.9,20.378,20.378,0,0,1,2.6,3.9,11.225,11.225,0,0,1,.7,4.8,17.149,17.149,0,0,0,.4,4.5,14.145,14.145,0,0,0,2.1,3.8,11.869,11.869,0,0,1,1.6,4.8,22.018,22.018,0,0,0,1.2,4.4,17.141,17.141,0,0,0,4.9,6.7c2.3,1.9,4.9,3.4,6.8,5.6,2.1,2.5,2.6,5.6,3,8.7.4,2.9.8,5.9,2.3,8.5a23.782,23.782,0,0,0,6.5,6.9c1.3,1,2.6,1.9,3.8,2.9,1.3,1,3,2.4,2.5,4.3a.413.413,0,0,0,.8.2c.8-2.9-2.6-4.9-4.5-6.4a41.686,41.686,0,0,1-6.7-5.8,13.09,13.09,0,0,1-2.4-3.7,23.205,23.205,0,0,1-1.3-4.5c-.5-2.9-.7-5.9-1.8-8.7-1.2-2.8-3.5-4.7-5.9-6.5a22.929,22.929,0,0,1-6.5-6.3,20.443,20.443,0,0,1-1.8-4c-.4-1.5-.6-3.1-1-4.7a9.037,9.037,0,0,0-.8-2.1c-.4-.7-.9-1.4-1.4-2.1a8.3,8.3,0,0,1-1.4-4.6c-.1-1.7,0-3.5-.2-5.2a10.555,10.555,0,0,0-2.1-4.4,21.913,21.913,0,0,1-3.1-4.8,24.476,24.476,0,0,1-1.8-5.4c.1,0-.2.1-.1.3Z" fill="#4ea1a5"/>
              </g>
            </g>
          </g>
          <g id="Group_297" data-name="Group 297">
            <g id="Group_289" data-name="Group 289">
              <path id="Path_3891" data-name="Path 3891" d="M71.3,391.6c4.1,1.1,8.4,2.6,12.6,1.7,1.7-.3,3.3-1,5-1.3,2.6-.3,5.2.5,7.8,1a13.526,13.526,0,0,0,4.9.3c1.7-.2,2.9-1.2,4.5-1.6,4.9-1.3,9.8,1.8,13.7,4.9,1.9,1.5,4,3.1,6.4,3.5,3.3.5,6.5-1.4,9.8-1.3h.2a12.378,12.378,0,0,1,7.4,3.4c2.1,1.8,3.9,3.9,6.2,5.5,5.6,4.1,13.1,4.9,19.4,7.9a8.531,8.531,0,0,1-2.5,1.3c-4.2,1.5-9.5.4-13.7,2.6-2,1-3.5,2.6-5.5,3.6-2,.9-4.2,1.8-6.3,2.6-3.5,1.3-7.7,2.1-11.1-.6-2.5-2.1-4.2-5.8-7-7.1-3.1-1.3-5.8.9-8.6,2-5.7,2.3-13.2-.7-17.6-6.9-2-2.8-4.3-5.8-8-6.1-3.8-.3-7.8.7-11.4-.8-3.9-1.7-6-5.8-9.4-8.2-2.7-1.9-6.1-2.5-9.1-3.7-.3-.1-.6-.2-.7-.5h0c-.3-.5.3-1.1.8-1.5C62.4,389.8,67.1,390.5,71.3,391.6Z" fill="#7cbfc1"/>
            </g>
            <g id="Group_290" data-name="Group 290" opacity="0.338">
              <path id="Path_3892" data-name="Path 3892" d="M71.3,391.6c4.1,1.1,8.4,2.6,12.6,1.7,1.7-.3,3.3-1,5-1.3,2.6-.3,5.2.5,7.8,1a13.526,13.526,0,0,0,4.9.3c1.7-.2,2.9-1.2,4.5-1.6,4.9-1.3,9.8,1.8,13.7,4.9,1.9,1.5,4,3.1,6.4,3.5,3.3.5,6.5-1.4,9.8-1.3h.2a12.378,12.378,0,0,1,7.4,3.4c2.1,1.8,3.9,3.9,6.2,5.5,5.6,4.1,13.1,4.9,19.4,7.9a8.531,8.531,0,0,1-2.5,1.3c-6.5,1.3-13.1,1.7-19.2-.6-3.4-1.3-6.4-3.4-9.9-4.4-4.3-1.3-8.8-.9-13.3-.9s-9.2-.5-12.8-3.1c-3-2.2-5.2-5.2-8.4-7.2a19.2,19.2,0,0,0-6.7-3c-2.8-.4-5.6.5-8.3,1.5a25.989,25.989,0,0,1-3.6,1.3,9.417,9.417,0,0,1-5-.3c-2.2-.9-3.7-2.8-5.7-4a20.268,20.268,0,0,0-7.7-2.3c-1.3-.2-2.6-.3-3.8-.4-.4,0-4.2.1-4.2,0-.3-.5.3-1.1.8-1.5C62.4,389.8,67.1,390.5,71.3,391.6Z" fill="#7cbfc1"/>
            </g>
            <g id="Group_292" data-name="Group 292">
              <g id="Group_291" data-name="Group 291">
                <path id="Path_3893" data-name="Path 3893" d="M59.1,393.1c3.5-1.6,7.6-.7,11,.7,3.3,1.4,6.3,3.5,9.7,4.9a18.227,18.227,0,0,0,5.1,1.3,31.284,31.284,0,0,0,6.1-.4c3.7-.4,7.4-.3,10.7,1.6,3.2,1.8,4.8,5.3,7.8,7.3a18.2,18.2,0,0,0,4.7,2.1,34.1,34.1,0,0,0,5.5,1.4,18.163,18.163,0,0,0,5.7,0,36.758,36.758,0,0,1,5.7-.6,17.38,17.38,0,0,1,9.9,2.9,47.336,47.336,0,0,1,4,3.7,14.691,14.691,0,0,0,4.2,2.8,23.828,23.828,0,0,0,9.9,1.4,21.051,21.051,0,0,0,2.5-.2.358.358,0,0,0-.1-.7c-3.5.2-7,.4-10.5-.6a13.965,13.965,0,0,1-4.7-2.4c-1.4-1.1-2.6-2.5-3.9-3.7a17.141,17.141,0,0,0-9.2-3.8,18.129,18.129,0,0,0-5.2.1,31.534,31.534,0,0,1-6.1.6,23.793,23.793,0,0,1-5.9-1.2,30.244,30.244,0,0,1-5-1.9,16.123,16.123,0,0,1-4.3-3.5,22.182,22.182,0,0,0-3.7-3.8,15.8,15.8,0,0,0-9.7-2.6c-2.1.1-4.1.5-6.2.6a15.418,15.418,0,0,1-5.7-.7c-3.6-1.1-6.7-3.3-10.1-4.9-3.1-1.4-6.6-2.5-10.1-1.8a22.509,22.509,0,0,0-2.4.8c-.1.5.1.7.3.6Z" fill="#4ea1a5"/>
              </g>
            </g>
            <g id="Group_294" data-name="Group 294">
              <g id="Group_293" data-name="Group 293">
                <path id="Path_3894" data-name="Path 3894" d="M61.4,393.8a32.721,32.721,0,0,1,9.9,4.9c2.7,2,5.1,4.5,8.4,5.7,3.4,1.3,7.2.8,10.8.8a20.124,20.124,0,0,1,10.2,2.6A22.89,22.89,0,0,1,105,411a35.742,35.742,0,0,0,3.7,3.1c2.9,1.9,6.3,2,9.6,1.7,3.5-.3,7-1.1,10.6-.7a17.071,17.071,0,0,1,9.5,4.4c2.7,2.3,5.1,5.1,8.6,6.4a12.561,12.561,0,0,0,10.7-.9c.3-.2,0-.7-.3-.5a12.91,12.91,0,0,1-10,.7c-3.2-1.1-5.5-3.6-8-5.8a19.807,19.807,0,0,0-8.5-4.7c-3.5-.8-7-.3-10.4.2-3.3.4-7,.8-10.1-.6s-5.2-4.4-8-6.2a21.7,21.7,0,0,0-9.2-3.3c-3.7-.4-7.4.3-11.1-.4a14.033,14.033,0,0,1-5.3-2.3c-1.5-1.1-3-2.4-4.5-3.5a32.744,32.744,0,0,0-10.7-5c-.4-.3-.5.1-.2.2Z" fill="#4ea1a5"/>
              </g>
            </g>
            <g id="Group_296" data-name="Group 296">
              <g id="Group_295" data-name="Group 295">
                <path id="Path_3895" data-name="Path 3895" d="M65.6,392.4a21.932,21.932,0,0,1,10.1,1.9,14.2,14.2,0,0,0,4.1,1.4,13.16,13.16,0,0,0,4.4-.4,23.63,23.63,0,0,1,4.5-.8c1.7,0,3,.8,4.5,1.3a13.938,13.938,0,0,0,5,.3,18.335,18.335,0,0,1,4.7.2,17.989,17.989,0,0,1,8.1,3.9c2.2,1.8,4.2,3.8,6.8,4.8,2.9,1.2,6.1.9,9.1.6,3.2-.3,6.3-.5,9.3.6,3.1,1.2,5.7,3.3,8.3,5.3a33.66,33.66,0,0,0,3.7,2.9c1.3.8,2.8,1.3,4.2.5.4-.2,0-.9-.4-.7-1.5.8-3.1-.2-4.3-1.1-1.1-.9-2.2-1.8-3.4-2.7a29.787,29.787,0,0,0-7.1-4.6,16.842,16.842,0,0,0-8.6-1.1c-3.2.3-6.4.9-9.5,0-2.9-.8-5.1-2.9-7.4-4.8a19.06,19.06,0,0,0-7.4-4,19.948,19.948,0,0,0-4.1-.5c-1.7,0-3.3.2-5,.1a6.963,6.963,0,0,1-2.5-.5,21.848,21.848,0,0,0-2.3-.9,9.493,9.493,0,0,0-4.1.1,44.231,44.231,0,0,1-5,1,10.942,10.942,0,0,1-5.3-1.3,20.691,20.691,0,0,0-10.4-1.8.15.15,0,0,0,0,.3Z" fill="#4ea1a5"/>
              </g>
            </g>
          </g>
        </g>
        <g id="Group_300" data-name="Group 300">
          <g id="Group_299" data-name="Group 299">
            <path id="Path_3896" data-name="Path 3896" d="M423.4,454.4c-1.1.1-2.2,0-3.1,0H84.2c-2.2,0-11.1.5-12.1-1.5-1.7-3.5,4-7.1,5.6-8.7,3.5-3.5,7-7,10.6-10.4,4.7-4.6,9.5-9.2,14.2-13.7a2.732,2.732,0,0,1,1.9-.8H392.6a2.732,2.732,0,0,1,1.9.8c6.3,6,12.5,12,18.8,18.1,2.6,2.5,5.2,5,7.7,7.6,1.5,1.5,6.1,4.2,5.1,7C425.7,453.8,424.6,454.2,423.4,454.4Z" fill="#6b90a5"/>
            <path id="Path_3897" data-name="Path 3897" d="M392,407H106.5V252A13.444,13.444,0,0,1,120,238.5H378.5A13.444,13.444,0,0,1,392,252Z" fill="#536c7a"/>
            <path id="Path_3898" data-name="Path 3898" d="M383,395.3H115.5V256.9a8.024,8.024,0,0,1,8-8H375a8.024,8.024,0,0,1,8,8Z" fill="#95c9b0"/>
            <path id="Path_3899" data-name="Path 3899" d="M421.4,448.2H77.1a3.089,3.089,0,0,1-2.9-2.6c-.2-1.1-.9-6.8.1-7.7l31.3-24a2.732,2.732,0,0,1,1.9-.8H391a2.732,2.732,0,0,1,1.9.8l31.3,24.8a52.15,52.15,0,0,1,.1,6.7A3.025,3.025,0,0,1,421.4,448.2Z" fill="#bfd6e2"/>
            <path id="Path_3900" data-name="Path 3900" d="M421.4,441.5l-344.3.7c-2.7,0-4-3.8-1.9-5.8l30.3-28.6a2.732,2.732,0,0,1,1.9-.8l283.5-.6a2.732,2.732,0,0,1,1.9.8l30.4,28.5C425.4,437.7,424.1,441.5,421.4,441.5Z" fill="#fff"/>
            <path id="Path_3901" data-name="Path 3901" d="M395.1,429.5l-291.7.4c-1.5,0-2.1-2.1-1-3.1l16.3-15.4a1.284,1.284,0,0,1,1-.4l259.1-.3a1.284,1.284,0,0,1,1,.4l16.3,15.3A1.8,1.8,0,0,1,395.1,429.5Z" fill="#82a6bf"/>
          </g>
          <path id="Path_3902" data-name="Path 3902" d="M311.8,438.8h-125a1.024,1.024,0,0,1-.5-1.8l5.5-4.6c.2-.1.3-.2.5-.2h114a.764.764,0,0,1,.5.2l5.5,4.6A1.024,1.024,0,0,1,311.8,438.8Z" fill="#dfebf3"/>
        </g>
      </g>
      <g id="Group_384" data-name="Group 384">
        <g id="Group_383" data-name="Group 383" clip-path="url(#clip-path)">
          <g id="Group_302" data-name="Group 302" opacity="0.749">
            <path id="Path_3903" data-name="Path 3903" d="M214.2,397.3a226.891,226.891,0,0,0-1.3-50.1c-.9-6.6-1.1-14.4-5.3-19.6A92.108,92.108,0,0,0,192,312a55.076,55.076,0,0,0-9.9-5.9,20.227,20.227,0,0,0-9.4-2.1,10.487,10.487,0,0,0-4.6,1.2,6.7,6.7,0,0,1-1.8.7c-.8.2-1.4-.2-2.1.6a4.756,4.756,0,0,0-.7,2.3,48.3,48.3,0,0,0,2.3,19.6,27.59,27.59,0,0,0,4.2,8.4c2.5,3,5.1,5.9,7.6,8.8a4.194,4.194,0,0,1,.9,1.4,8.586,8.586,0,0,1,.3,1.7,232.222,232.222,0,0,1-.1,23.6c-.5,7.6-.5,14.9-.3,22.5.2,5.7-.4,12.9,6.2,13.7,6.8.8,14.7-.4,21.5-1.4a11.286,11.286,0,0,0,4.7-1.5C213.4,403.8,213.9,400.3,214.2,397.3Z" fill="#95c9b0"/>
          </g>
          <g id="Group_303" data-name="Group 303" opacity="0.749">
            <path id="Path_3904" data-name="Path 3904" d="M322.3,397.5c-.7-18.3-.8-36.8-.7-55.1,7.8,3.9,15.4.7,17.6-.2,10.1-3.8,16.5-13.7,21.4-22.8a390.86,390.86,0,0,0,20.7-45.1,142.8,142.8,0,0,0,6.5-21.1c.4-1.8.6-3.9-.5-5.3-2.4-2.9-6.9-.1-9.4,2.8-14.6,16.6-31.1,30.2-52.4,37.6-5.6,1.9-11.5,3.3-17.4,2.7-9-1-18.5-6.6-26.5-2.4-7.5,3.9-8.8,14-8.9,22.5-.3,30.6,2.9,61.1,6.1,91.5" fill="#95c9b0"/>
          </g>
          <g id="Group_304" data-name="Group 304">
            <path id="Path_3905" data-name="Path 3905" d="M392.3,240.9a68.327,68.327,0,0,0,10.4-9.7c2.7-3.2,2-8.2,1.5-12.1a6.529,6.529,0,0,0-.6-2.4c-1.6-2.8-4.1-1.7-6.6-2.6-.2-.1-.4-.2-.4-.3a.6.6,0,0,1,.1-.4c1.6-3.8,3.1-7.7,4.7-11.5a12.65,12.65,0,0,0,1.2-5,1.872,1.872,0,0,0-.5-1.4,1.8,1.8,0,0,0-2-.2,5.212,5.212,0,0,0-1.6,1.4c-4.3,5-8.5,10.9-10.7,17.1-3.8.2-6.7,3.3-8.6,6.6a42.743,42.743,0,0,0-3.2,8.4c-.8,2.7-.3,3.8,1.7,5.8a30.081,30.081,0,0,0,9.7,6.5,7.273,7.273,0,0,0,2.9.7A4.106,4.106,0,0,0,392.3,240.9Z" fill="#f4c587"/>
          </g>
          <g id="Group_305" data-name="Group 305">
            <path id="Path_3906" data-name="Path 3906" d="M391,242.9c0,2.7-2.5,5.4-3.8,7.8-2.1,3.9-4.4,7.7-6.7,11.4q-6.75,11.1-14.4,21.6a340.181,340.181,0,0,1-22.6,28.2c-6.4,7.2-14.1,14.7-24.6,10.7a33.767,33.767,0,0,1-6.4-3.6c-3-1.9-5.8-4.1-8.6-6.1-.6,9.5.6,19.4,1.2,28.9.3,4.9.6,9.8.8,14.7.1,1.8-.7,12.9.4,13.8-.1-.1-106-76.2-106-76.2-1.1,7-4.1,17.2.3,23.2,10.4,14.4,23.5,27.2,30.6,43.5,2.1,4.8,3.6,10.1,2.5,15.2a8.281,8.281,0,0,1-1.9,4,8.48,8.48,0,0,1-7.4,2.1c-8.9-1.2-9.1-24.2-16.6-28.1-11.4-6-19.3-11.4-27.3-19.6-5.3-5.4-15.3-13.1-16.8-21.2-.7-3.7.2-7.5,1.1-11.1,3.3-12.6,6.1-18,12.2-29.5,5.5-10.4,11.6-22.3,21.7-28.8,10.4-6.7,21.6-12.6,32.2-19,7.6-4.6,14.5-1.1,22.7,2.2,5.4,2.1,18,2.6,23.4,4.7.6.2,1.2.5,1.8.7,11.4,4.6,22,9.9,30.2,19.4,6.1,7.1,13.3,12.8,20.2,19.1a2.252,2.252,0,0,0,1.4.8c1.7,0,16.6-14.8,20.3-18.3,7.4-7,14.5-14.4,21.3-22a6.638,6.638,0,0,1,2.7-2.1,2.2,2.2,0,0,1,1.4-.1,4.123,4.123,0,0,1,1.9,1.1c2.9,2.4,5.9,4.8,8.9,7.2a14.292,14.292,0,0,1,3.2,3.3A2.828,2.828,0,0,1,391,242.9Z" fill="#f5fbff"/>
          </g>
          <g id="Group_306" data-name="Group 306">
            <path id="Path_3907" data-name="Path 3907" d="M302,227.8c-.5,1.6-2.7,1.7-4.3,1.4a37.255,37.255,0,0,0-4.7-.4,11.187,11.187,0,0,0-3.6.5c-.2.1-.3.1-.5.2a11.051,11.051,0,0,1-3.1.9,14.084,14.084,0,0,1-3.5-.5,19.587,19.587,0,0,0-4.8-.5c-4.5,0-9,.8-13.4.3a9.006,9.006,0,0,1-1.6-.3c-3.9-.8-3.3-6.5-3.4-9.5a4.491,4.491,0,0,0-.7-1.8c-.4-1.1-5.7-11.6-5.5-11.8-4.6,3.5-9.1,7.1-13.7,10.6a2.722,2.722,0,0,1-1.6.8c-2.6.2-3.7-3.6-4.8,1.1-.9,4.1,1.3,8.9-3.5,11a11.955,11.955,0,0,1-5.6.8c-3-.1-6.1-.7-9.1.1-2.1.6-4,1.9-6.2,2-2,.2-4-.7-5.8-1.6-3.3-1.5-6-2.7-9-2.9h0a13.026,13.026,0,0,0-4.7.5c-.2.1-.4.1-.6.2a7.985,7.985,0,0,1-2.6.5,3.079,3.079,0,0,1-1.3-.3,2.574,2.574,0,0,1-1-2.2c.1-2.8,2.7-4.9,3.3-7.6.7-3.1-1.2-6.3-1.4-9.5v-1.3a1.268,1.268,0,0,1,.1-.6c.4-3.1,2.3-6,3.7-8.9.1-.1.1-.3.2-.4,0-.1.1-.1.1-.2l.3-.6a39.812,39.812,0,0,0,3.2-14.9v-3.1c-.1-2.7-.4-5.3-.5-8.1v-3.6c0-.6.1-1.1.1-1.7a50.864,50.864,0,0,1,1.2-6.8v-.1l.9-3.3c.1-.5.3-1,.4-1.4.3-1.2.7-2.3,1-3.4a55.618,55.618,0,0,1,3.5-8.8,46.738,46.738,0,0,1,2.7-4.9,50.863,50.863,0,0,1,21.1-19.9c8.1-3.9,17.5-5.8,26.5-4,9.8,2,18.6,8.1,25.5,15.9h0a69.458,69.458,0,0,1,14.5,26.2c1.4,5,.7,10.2,2.1,15,.8,2.7,2.3,5.1,2.8,7.8.9,5.3-2.5,10.6-1.9,15.9,0,.3.1.5.1.8a11.7,11.7,0,0,0,.5,2c1,3.2,2.7,6.2,3.2,9.6.9,5.9-.8,12.4,3.5,17.3C301.3,225.3,302.4,226.5,302,227.8Z" fill="#5b3e36"/>
          </g>
          <g id="Group_307" data-name="Group 307">
            <path id="Path_3908" data-name="Path 3908" d="M259.9,247.5a64.618,64.618,0,0,1-4.4,9.2c-1.6,2.8-3.2,5.4-4.9,8.1a2.915,2.915,0,0,1-1.5,1.4c-1,.2-1.8-.9-2.3-1.8-5.3-9.7-10.3-19.6-14.8-29.7.3-3.6.6-6.7.6-10.4,0-4.8-.3-9.6-.4-14.4-.1-2.6-.2-5.1-.2-7.7l26.8-8.4c-.1,3-.2,6.1-.1,9.1h0c0,2.7.1,5.3.3,8,.3,6.3,3.9,21.8,4,22C259.7,239.7,261.9,242.3,259.9,247.5Z" fill="#f4c587"/>
          </g>
          <g id="Group_311" data-name="Group 311">
            <g id="Group_308" data-name="Group 308" opacity="0.913">
              <path id="Path_3909" data-name="Path 3909" d="M259.9,247.5a64.618,64.618,0,0,1-4.4,9.2c-.4-6.3-.8-12.6-1.7-18.9-.8-6-2.1-12-5.3-17.1-2-3.1-4.1-4-7.3-5.4-1.3-.6-9.1-3.9-9.1-5.5-.1-2.6-.2-5.1-.2-7.7l26.8-8.4c-.1,2.9-.5,6.1-.1,9.1h0c0,2.7.1,5.3.3,8,.3,6.3,3.9,21.8,4,22C259.9,240.6,261.9,242.3,259.9,247.5Z" fill="#f4c587"/>
            </g>
            <g id="Group_309" data-name="Group 309">
              <path id="Path_3910" data-name="Path 3910" d="M278.8,180.3a7.779,7.779,0,0,1-2,3.8,1.794,1.794,0,0,1-.7.5c-.8.5-1.8.7-2.6,1.1-1.7.8-1.9,2.5-2.5,4.2a43.123,43.123,0,0,1-4.2,8.3,10.476,10.476,0,0,1-.8,1.1c-.1.1-.2.3-.3.4-.3.3-.5.7-.8,1a27.9,27.9,0,0,1-3.4,3.5c-1.1,1.1-2.4,2.1-3.6,3.1-.6.4-1.1.8-1.7,1.2a54.027,54.027,0,0,1-10,5.4,10.89,10.89,0,0,1-3.1.8h-.3a1.7,1.7,0,0,1-.7-.1,8.086,8.086,0,0,1-2.5-.8,45.9,45.9,0,0,1-22.4-19.7c-.1-.1-.1-.3-.2-.4h0c-.1-.1-.1-.3-.2-.4a2.994,2.994,0,0,1-.4-.8c-.1-.3-.3-.5-.4-.8a.367.367,0,0,1-.1-.3v-.1c-.1-.3-.2-.5-.3-.8a.758.758,0,0,0-.2-.4V190l-1.3-5.6-1.5-6c1-2.9,4.2-8.5-1.1-5.7,0-.7-.1-1.3-.1-2v-2.5a48.333,48.333,0,0,1,1.2-9.3c2.6-11.8,9.7-22.2,21.9-26.2a29,29,0,0,1,6.5-1.4,29.3,29.3,0,0,1,14.8,2.6,25.674,25.674,0,0,1,10.4,8.6c1,1.6,2,3.2,2.9,4.8A38.221,38.221,0,0,1,274,161c.2,1.8.5,3.6.7,5.4,0,.6-.4,2.1.2,2.2,2.3.3,3.5,1.7,4.4,3.6C280.3,174.7,279.4,177.9,278.8,180.3Z" fill="#f4c587"/>
            </g>
            <g id="Group_310" data-name="Group 310">
              <path id="Path_3911" data-name="Path 3911" d="M215.2,189.8a2.355,2.355,0,0,0-1-.5H214a2.768,2.768,0,0,0-.9-.1.367.367,0,0,1-.3-.1h-.3a.367.367,0,0,1-.3-.1c-2.4-.6-3.6-3.1-4.4-5.4-.8-2.4-1.5-5.2-.5-7.6a4.213,4.213,0,0,1,1.6-1.9q1.5-.9,2.4-1.5c0,.6.1,1.2.1,1.8l.9,3.9a4.515,4.515,0,0,0-.3,1.3,48.752,48.752,0,0,0,2.2,8.1C214.6,188.5,214.9,189.2,215.2,189.8Z" fill="#f4c587"/>
            </g>
            <path id="Path_3912" data-name="Path 3912" d="M231.2,168.2V194h-14l-.2-.4h0c-.1-.1-.1-.3-.2-.4v-.1c-.1-.3-.3-.5-.4-.8,0-.1-.1-.1-.1-.2l-.3-.6a.367.367,0,0,1-.1-.3v-.1c-.1-.3-.2-.5-.3-.8a.758.758,0,0,0-.2-.4v-.1l-.1-.1h0a2.355,2.355,0,0,0-1-.5h-.2a2.768,2.768,0,0,0-.9-.1.367.367,0,0,1-.3-.1h-.3a.367.367,0,0,1-.3-.1c-2.4-.6-3.6-3.1-4.4-5.4-.8-2.4-1.5-5.2-.5-7.6A4.213,4.213,0,0,1,209,174q1.5-.9,2.4-1.5a33.785,33.785,0,0,1,0-4.5h19.8Z" fill="#f4c587"/>
          </g>
          <g id="Group_312" data-name="Group 312">
            <path id="Path_3913" data-name="Path 3913" d="M231.7,232.8c3.8,2.5,9.9,3.4,14.7,3.7a40.338,40.338,0,0,0,9.2-.2,18.809,18.809,0,0,0,8.7-4.6c-1.2,4.6,1.5,11.1.4,15.7-2.7,10.6-9,31.3-14.2,41.2-8.6-14.5-19.6-36.5-18.7-55.5" fill="#b2d8c7"/>
          </g>
          <g id="Group_317" data-name="Group 317">
            <g id="Group_315" data-name="Group 315">
              <g id="Group_313" data-name="Group 313">
                <path id="Path_3914" data-name="Path 3914" d="M261.1,170.7c.3.1.7.2,1,.3.5.2,1.1.1,1.2-.5.3-1.5-4.2-3.1-6.4-3.2a9.116,9.116,0,0,0-4.6,1,1.555,1.555,0,0,0-.8.6c-.6,1.1.3,2,1.4,1.9a32.722,32.722,0,0,1,5.4-.4A12.65,12.65,0,0,1,261.1,170.7Z" fill="#876351"/>
              </g>
              <g id="Group_314" data-name="Group 314">
                <path id="Path_3915" data-name="Path 3915" d="M224.5,171.5c-.4.1-.7.2-1,.3-.5.2-1.1.1-1.2-.5-.3-1.6,4.3-3.2,6.5-3.3a10.122,10.122,0,0,1,4.8,1,2.407,2.407,0,0,1,.8.6,1.345,1.345,0,0,1-1.4,2,50.666,50.666,0,0,0-5.6-.5A25.349,25.349,0,0,0,224.5,171.5Z" fill="#876351"/>
              </g>
              <path id="Path_3916" data-name="Path 3916" d="M252.6,177.4a4.764,4.764,0,0,0,2.8,4.9,3.624,3.624,0,0,0,2.7.1,3.536,3.536,0,0,0,1.9-1.9,6.053,6.053,0,0,0-1-5.8C256.5,171.7,253,174.1,252.6,177.4Z" fill="#5b3e36"/>
              <path id="Path_3917" data-name="Path 3917" d="M256.4,175.7a1.209,1.209,0,0,0,.7,1.3.854.854,0,0,0,.7,0,1.205,1.205,0,0,0,.5-.5,1.7,1.7,0,0,0,.1-.7,1.136,1.136,0,0,0-.3-.8C257.4,174.2,256.5,174.8,256.4,175.7Z" fill="#f2f2f2"/>
              <path id="Path_3918" data-name="Path 3918" d="M259.8,183.9c-.9,1.2-.8,2.8,1.4,4a4.486,4.486,0,0,0,1.9.5,5.379,5.379,0,0,0,3.1-.5,3.367,3.367,0,0,0,1.8-2.4,2.877,2.877,0,0,0-.3-1.6c-.6-1.3-2.6-1.8-3.9-1.8A4.9,4.9,0,0,0,259.8,183.9Z" fill="#d38467"/>
              <path id="Path_3919" data-name="Path 3919" d="M217.2,185.5c-.9,1.2-.8,2.8,1.4,4a4.486,4.486,0,0,0,1.9.5,5.38,5.38,0,0,0,3.1-.5,3.367,3.367,0,0,0,1.8-2.4,2.877,2.877,0,0,0-.3-1.6c-.6-1.3-2.6-1.8-3.9-1.8A4.9,4.9,0,0,0,217.2,185.5Z" fill="#d38467"/>
            </g>
            <g id="Group_316" data-name="Group 316">
              <path id="Path_3920" data-name="Path 3920" d="M224.4,177.9a4.764,4.764,0,0,0,2.8,4.9,3.624,3.624,0,0,0,2.7.1,3.536,3.536,0,0,0,1.9-1.9,5.679,5.679,0,0,0,.6-2.8,4.714,4.714,0,0,0-1.2-3C228.6,172.2,224.8,174.6,224.4,177.9Z" fill="#5b3e36"/>
              <path id="Path_3921" data-name="Path 3921" d="M228.3,176.7a1.209,1.209,0,0,0,.7,1.3.854.854,0,0,0,.7,0,1.205,1.205,0,0,0,.5-.5,1.7,1.7,0,0,0,.1-.7,1.136,1.136,0,0,0-.3-.8C229.3,175.2,228.4,175.8,228.3,176.7Z" fill="#f2f2f2"/>
            </g>
          </g>
          <g id="Group_318" data-name="Group 318">
            <path id="Path_3922" data-name="Path 3922" d="M263.7,251.2c.9-5.4,3.6-10.8,2.1-16.1-.3-1.1-1.8-6.7-3-6.8-.3,0-1.8,1.8-2.2,2.1-1.1.9-2.3,1.8-3.5,2.6-1.2.9-2.1,1.9-3.7,2a110.28,110.28,0,0,1,0,11.5c-.5,8.5-2.5,16.7-7.1,23.9a19.381,19.381,0,0,1-5.8-6.6c-3.2-5-5.2-10.4-7.8-15.7-.7.4-.1,3.3,0,4.1a36.757,36.757,0,0,0,.6,5.7,73.75,73.75,0,0,0,2.9,11.2c2.6,7.8,5.4,15.4,7.3,23.4,4.8-6.3,9.9-12.5,14.1-19.2C261.7,266.6,262.4,259.1,263.7,251.2Z" fill="#b2d8c7"/>
          </g>
          <g id="Group_319" data-name="Group 319">
            <path id="Path_3923" data-name="Path 3923" d="M308.5,394.3a4.019,4.019,0,0,1-1,2.8,3.923,3.923,0,0,1-2.4.9c-12.6,2.3-25.3,4.7-38,3.6-4.4-.4-8.7-1.1-13-1.5-5.3-.5-10.7-.4-16-.4l-33.2.3c-4.3,0-8.5.1-12.8.1-1.6,0-3.5-.1-4.6-1.3-.9-1-.9-2.4-.9-3.7,0-33.6-2.2-77-2.2-110.6l120.1,26.3c0,1,.1,2.4.2,4.1C305.8,332.4,309.4,384.8,308.5,394.3Z" fill="#f5fbff"/>
          </g>
          <g id="Group_321" data-name="Group 321">
            <g id="Group_320" data-name="Group 320">
              <path id="Path_3924" data-name="Path 3924" d="M231.4,227.8c-5.4.9-9.9,4.9-12.3,9.6-3,5.8-3.4,12.4-3.6,18.7-.3,8.8-.2,17.6,0,26.3,0,2.5.1,5,.2,7.4a41.669,41.669,0,0,0,.4,6.1,1.377,1.377,0,0,0,1.6,1,1.493,1.493,0,0,0,1.3-1.4c.1-1.6-.1-3.3-.1-4.9-.1-2.1-.1-4.2-.2-6.3-.1-4.7-.1-9.5-.1-14.2,0-4.1,0-8.2.1-12.3.1-5.5.3-11.1,2-16.4,1.7-5.4,5.6-10.8,11.3-12.3.7-.2.3-1.5-.6-1.3Z" fill="#6b6d6d"/>
            </g>
          </g>
          <g id="Group_323" data-name="Group 323">
            <g id="Group_322" data-name="Group 322">
              <path id="Path_3925" data-name="Path 3925" d="M263.9,228.7c3.7,1,6.4,3.6,8.6,6.7a27.725,27.725,0,0,1,4.1,11.9,106.424,106.424,0,0,1,.7,12.6c.2,4.1.4,8.3.6,12.4.1,2.3.2,4.6.4,6.9.1,1.1.1,2.1.2,3.2s.1,2.2.3,3.3a1.347,1.347,0,0,0,1.6,1,1.493,1.493,0,0,0,1.3-1.4,12.212,12.212,0,0,0-.1-2.7c-.1-1-.1-2-.2-3l-.3-6.3-.6-12.9c-.4-8.8,0-18.3-5.2-25.9a16.687,16.687,0,0,0-10.9-7.2c-1-.1-1.4,1.2-.5,1.4Z" fill="#6b6d6d"/>
            </g>
          </g>
          <g id="Group_324" data-name="Group 324" opacity="0.579">
            <path id="Path_3926" data-name="Path 3926" d="M278.8,180.3a7.779,7.779,0,0,1-2,3.8,1.794,1.794,0,0,1-.7.5c-.8.5-1.8.7-2.6,1.1-1.7.8-1.9,2.5-2.5,4.2a43.123,43.123,0,0,1-4.2,8.3,10.476,10.476,0,0,1-.8,1.1c-.1.1-.2.3-.3.4-.3.3-.5.7-.8,1a28.118,28.118,0,0,1-3.4,3.5c-1.2,1.1-2.4,2.1-3.6,3.1-.6.4-1.1.8-1.7,1.2-1.2.8-2.5,1.6-3.7,2.4-.6.4-1.4.7-2,1.1-.4.3-.7.8-1.2.6a73.373,73.373,0,0,0,5.1-6c1.5-2.1,2.5-4.4,3.9-6.5,3.8-5.7,6.1-15,6.8-21.8a30.472,30.472,0,0,0-.1-7.4,13.606,13.606,0,0,0-2.6-7c-1.2-1.6-2.8-2.8-3.9-4.4a30.721,30.721,0,0,1-4.5-10.9c-1.8,2.3-4.1,3.9-5.6,6.5-1.4,2.3-2.3,5-4.1,7.1a12.534,12.534,0,0,1-9.7,4.6c-2.2,0-3-.2-4.7,1.3a17.883,17.883,0,0,0-3.6,4.6,37.4,37.4,0,0,1-4.5,6.7,8.777,8.777,0,0,1-7.1,3h-.3c-2.5-.4-3.1-2.3-3.5-4.5-.5-2.9-.7-5.5.7-8.2.2-.3.4-.7.6-1a13.9,13.9,0,0,0,1.1-2.1,9.71,9.71,0,0,0,.7-3.7c.1-2-.9-1.8-1.3-3.7-.3-1.7-.7-3.4-1.1-5.2a12.949,12.949,0,0,1-.4-3.9,4.788,4.788,0,0,1,2.1-3.5c1.3-1,2.2-2.7,3.3-4a69.116,69.116,0,0,1,7.5-7.8,27.656,27.656,0,0,1,7.5-5.3c6-2.6,12.9-1.4,19.4-.1l4.9,4.9,13.3,13.5a38.221,38.221,0,0,1,4.9,13.7c.2,1.8.5,3.6.7,5.4,0,.6-.4,2.1.2,2.2,2.3.3,3.5,1.7,4.4,3.6C280.3,174.7,279.4,177.9,278.8,180.3Z" fill="#f4c587"/>
          </g>
          <g id="Group_325" data-name="Group 325">
            <path id="Path_3927" data-name="Path 3927" d="M250.9,123.9c-.4-2.6-.1-4,2.9-2.7,7.9,3.7,15.7,8.6,20.3,16.1a32.8,32.8,0,0,1,4.7,14,26.564,26.564,0,0,1-.7,9.7c-.8,2.9-2.3,5.6-3.3,8.4-1.4,3.9-1.9,8.1-3.6,11.9-.2.5-.5,1-1,1-.7,0-1.1-.7-1.2-1.4-1.5-5.8-.8-12.4-4.3-17.2-1.1-1.5-2.6-2.8-3.7-4.3-1.8-2.4-2.6-5.3-3.4-8.1-.4-1.4-.7-2.8-1.2-4.2-.1-.4-1.4-3.3-1.3-3.5a29.08,29.08,0,0,1-6.5,6.6c-1.2.8-2.6,1.4-3.7,2.3-2,1.7-2.5,4.1-3.8,6.2a14.124,14.124,0,0,1-3.9,4.5c-1.8,1.2-4,1.5-5.9,2.6-2.5,1.4-4.2,3.8-5.6,6.2a41.047,41.047,0,0,1-4.6,7.1c-1.9,2.1-4.7,3.6-7.5,3.2-4.4-.7-3-5.5-4.5-8.7-.5-1-1.3-1.8-1.8-2.9-1.4-3.1-1.1-7.6-.8-10.9,1.3-11.9,9-22.2,17.6-30.5a28.057,28.057,0,0,1,7.6-5.7c6.1-2.8,13.2-1.5,19.7-.2" fill="#5b3e36"/>
          </g>
          <g id="Group_326" data-name="Group 326" opacity="0.342">
            <path id="Path_3928" data-name="Path 3928" d="M235.4,262.7a69.77,69.77,0,0,1-3.7-14.1,60.338,60.338,0,0,1-.8-7.3c-.1-2.2.5-5-.1-7.2a9.39,9.39,0,0,0-4.2,2.9,33.677,33.677,0,0,0-5.4,9.1c-1.3,2.9-2.5,6-4.5,8.6a75.645,75.645,0,0,1-5.8,6.9,2.075,2.075,0,0,0-.6,1c-.1.8.8,1.3,1.6,1.5a22.11,22.11,0,0,0,16-1,14.077,14.077,0,0,1-2.4,8.6c-1.6,2.6-3.5,5-5.2,7.6-.4.5-.7,1.3-.1,1.7a1.077,1.077,0,0,0,.8.2,28.853,28.853,0,0,1,12.3,5.3,31.668,31.668,0,0,1,5.1,4.6c1.1,1.2,2.9,4.5,4.3,5.1,1.7.7,4-6.9,4.3-8.4.5-2.3-1.4-4.6-2.5-6.6A144.363,144.363,0,0,1,235.4,262.7Z" fill="#a5c5d3"/>
          </g>
          <g id="Group_327" data-name="Group 327">
            <path id="Path_3929" data-name="Path 3929" d="M237,258.4a75.535,75.535,0,0,1-3.7-14.9,68.728,68.728,0,0,1-.8-7.8c-.1-2.4.5-5.3-.1-7.6a9.606,9.606,0,0,0-4.2,3,35.466,35.466,0,0,0-5.4,9.7c-1.3,3.1-2.5,6.4-4.5,9.1a80.712,80.712,0,0,1-5.8,7.3,2.384,2.384,0,0,0-.6,1.1c-.1.8.8,1.3,1.6,1.6a21.135,21.135,0,0,0,16-1,15.587,15.587,0,0,1-2.4,9.1c-1.6,2.8-3.5,5.3-5.2,8-.4.6-.7,1.4-.1,1.8.2.2.5.2.8.3a28.172,28.172,0,0,1,12.3,5.6,38.636,38.636,0,0,1,5.1,4.8c1.1,1.2,2.9,4.8,4.3,5.4,1.7.7,4-7.3,4.3-8.9.5-2.4-1.4-4.8-2.5-7A140.288,140.288,0,0,1,237,258.4Z" fill="#f5fbff"/>
          </g>
          <g id="Group_328" data-name="Group 328" opacity="0.342">
            <path id="Path_3930" data-name="Path 3930" d="M257.2,262.1a75.754,75.754,0,0,0,3.8-14.9,68.721,68.721,0,0,0,.8-7.8c.1-2.4-.2-5,.1-7.4a8.982,8.982,0,0,1,4.3,2.8c2.5,2.8,4.1,6.3,5.6,9.7,1.3,3.1,2.5,6.4,4.6,9.1,1.9,2.5,3.8,5,5.9,7.3a1.738,1.738,0,0,1,.6,1.1c.1.8-.9,1.3-1.7,1.6a21.9,21.9,0,0,1-16.3-1,15.587,15.587,0,0,0,2.4,9.1c1.6,2.8,3.6,5.3,5.3,8,.4.6.7,1.4.1,1.8-.2.2-.5.2-.8.3-6.9,1.1-12.9,5.2-17.8,10.1-4.9,4.8-9,10.4-13.9,15.2-.6-8.9,3.5-17.3,7.6-25.3A142.289,142.289,0,0,0,257.2,262.1Z" fill="#a5c5d3"/>
          </g>
          <g id="Group_329" data-name="Group 329">
            <path id="Path_3931" data-name="Path 3931" d="M256.8,257.2a75.535,75.535,0,0,0,3.7-14.9,68.721,68.721,0,0,0,.8-7.8c.1-2.4-.2-5,.1-7.4a9.183,9.183,0,0,1,4.2,2.8,35.466,35.466,0,0,1,5.4,9.7c1.3,3.1,2.5,6.4,4.5,9.1a80.716,80.716,0,0,0,5.8,7.3,2.384,2.384,0,0,1,.6,1.1c.1.8-.8,1.3-1.6,1.6a21.135,21.135,0,0,1-16-1,15.587,15.587,0,0,0,2.4,9.1c1.6,2.8,3.5,5.3,5.2,8,.4.6.7,1.4.1,1.8-.2.2-.5.2-.8.3-6.7,1.1-12.6,5.2-17.4,10.1-4.8,4.8-8.8,10.4-13.6,15.2-.6-8.9,3.4-17.3,7.4-25.3A153.625,153.625,0,0,0,256.8,257.2Z" fill="#f5fbff"/>
          </g>
          <g id="Group_331" data-name="Group 331">
            <g id="Group_330" data-name="Group 330">
              <path id="Path_3932" data-name="Path 3932" d="M254.5,129.5c-2.3,3.7-2.1,8.4-4.4,12.1a7.685,7.685,0,0,1-2.2,2.2c-1.2.8-2.6,1.6-3.9,2.3s-2.5,1.3-3.8,1.9a15.872,15.872,0,0,0-3.4,1.8c-2.1,1.5-3,3.6-4,5.9a12.036,12.036,0,0,1-1.5,3,5.722,5.722,0,0,1-2.6,2c-2.3,1-4.9,1.3-6.8,3.1s-2.5,4.4-3.3,6.8c-.3,1-.7,1.9-1,2.9a18.613,18.613,0,0,1-1,2.5,5.345,5.345,0,0,1-4.6,3c-1.3.1-1.3,2.1,0,2.1a7.233,7.233,0,0,0,5.5-2.6,16.374,16.374,0,0,0,2.3-4.8c.3-1,.7-1.9,1-2.9a35.941,35.941,0,0,1,1.2-3.5,6.08,6.08,0,0,1,2.3-2.7,24.4,24.4,0,0,1,3.4-1.4,12.252,12.252,0,0,0,3.5-1.6,8.5,8.5,0,0,0,2.3-2.7c1.1-2,1.5-4.5,3-6.3,1.6-2,4.4-2.8,6.7-4,1.4-.7,2.7-1.4,4.1-2.2a13.32,13.32,0,0,0,3.3-2.4c3.4-3.8,2.5-9.5,4.9-13.8.3-.8-.6-1.3-1-.7Z" fill="#492f29"/>
            </g>
          </g>
          <g id="Group_333" data-name="Group 333">
            <g id="Group_332" data-name="Group 332">
              <path id="Path_3933" data-name="Path 3933" d="M252.6,129.2a19.358,19.358,0,0,1-9.3,9c-3.3,1.7-6.9,2.5-10.2,4.1a15.418,15.418,0,0,0-5.8,4.6,9.4,9.4,0,0,0-1.5,3.2c-.3,1.2-.5,2.5-.9,3.6-.7,1.9-2.6,2.8-4.3,3.7a9.174,9.174,0,0,0-4.5,4.4c-.8,1.9-.6,4.1-.8,6.1a16.849,16.849,0,0,1-2.6,8.1c-.6.9.9,1.7,1.5.9a18.472,18.472,0,0,0,2.8-7.5,50.884,50.884,0,0,1,.4-5.6,6.488,6.488,0,0,1,3.4-4.5c1.8-1,3.6-1.7,4.9-3.4,1.6-2,1.3-4.6,2.3-6.8a11.972,11.972,0,0,1,5.2-5c3.3-1.8,7-2.7,10.3-4.4a23.946,23.946,0,0,0,5.6-4,16.738,16.738,0,0,0,4.1-6.4c.1-.2-.4-.4-.6-.1Z" fill="#492f29"/>
            </g>
          </g>
          <circle id="Ellipse_190" data-name="Ellipse 190" cx="10.3" cy="10.3" r="10.3" transform="translate(207.2 287.3)" fill="#dfebf3"/>
          <circle id="Ellipse_191" data-name="Ellipse 191" cx="10.3" cy="10.3" r="10.3" transform="translate(208.9 288.7)" fill="#dfebf3"/>
          <path id="Path_3934" data-name="Path 3934" d="M227.8,297.6a10.285,10.285,0,0,1-10.3,10.3,10.175,10.175,0,0,1-9.2-5.7,10.344,10.344,0,0,0,18.1-6.8,10.388,10.388,0,0,0-1.1-4.6A10.171,10.171,0,0,1,227.8,297.6Z" fill="#a5c5d3" opacity="0.342"/>
          <g id="Group_335" data-name="Group 335" opacity="0.342">
            <g id="Group_334" data-name="Group 334">
              <path id="Path_3935" data-name="Path 3935" d="M239.9,306.6c-.3,3-.1,6.2-.1,9.2,0,3.1.1,6.2.1,9.2.1,6.1.2,12.1.3,18.2.2,12.2.5,24.4.8,36.7l.3,10.2c0,1.7.1,3.5.2,5.2a43.792,43.792,0,0,0,.4,5.1c.1.5,1.1.6,1.1,0a69.134,69.134,0,0,0,.2-9.1c-.1-3.1-.1-6.2-.2-9.2-.1-6.1-.3-12.2-.4-18.3-.3-12.3-.6-24.5-1-36.8-.1-3.4-.2-6.8-.4-10.2-.1-1.7-.1-3.5-.2-5.2a43.792,43.792,0,0,0-.4-5.1c-.1-.5-.7-.3-.7.1Z" fill="#a5c5d3"/>
            </g>
          </g>
          <g id="Group_337" data-name="Group 337">
            <g id="Group_336" data-name="Group 336">
              <path id="Path_3936" data-name="Path 3936" d="M270.5,315.4c-.4,2.5.2,5,.5,7.5.4,2.6.9,5.1,1.4,7.7.5,2.5,1,4.9,1.6,7.4a14.2,14.2,0,0,0,2.9,5.9c1.5,1.5,4.2,2.9,6.1,1.6a.666.666,0,0,0-.3-1.2,10.856,10.856,0,0,1-2.5-.4,5.106,5.106,0,0,1-2.1-1.5c-1.4-1.5-1.9-3.5-2.4-5.4-1.1-4.6-2-9.2-3-13.8-.5-2.6-1.2-5.2-1.6-7.8,0-.3-.6-.3-.6,0Z" fill="#dfebf3"/>
            </g>
          </g>
          <g id="Group_339" data-name="Group 339">
            <g id="Group_338" data-name="Group 338">
              <path id="Path_3937" data-name="Path 3937" d="M291.2,315.4c-.4,2.3-.9,4.5-1.4,6.8s-1,4.7-1.5,7l-1.5,6.9a18.572,18.572,0,0,1-2.1,5.7,6.736,6.736,0,0,1-2.2,1.9,9.367,9.367,0,0,1-2.9.6.644.644,0,0,0-.3,1.2c1.8,1.1,4.1.1,5.6-1.1a11.8,11.8,0,0,0,3.3-5.6c.7-2.4,1.2-4.8,1.7-7.2.5-2.5,1-5.1,1.5-7.7.4-2.7,1.1-5.7.7-8.5-.3-.3-.9-.3-.9,0Z" fill="#dfebf3"/>
            </g>
          </g>
          <path id="Path_3938" data-name="Path 3938" d="M271.3,317.4c-.7-4.5-2.9-22.4,3.8-29.9a7.173,7.173,0,0,1,6.2-2.3c3.7.5,6,4.4,7.2,7.9,2.5,7.5,2.7,15.6,2.9,23.5" fill="none" stroke="#6b6d6d" stroke-linecap="round" stroke-miterlimit="10" stroke-width="3"/>
          <circle id="Ellipse_192" data-name="Ellipse 192" cx="4.5" cy="4.5" r="4.5" transform="translate(213 293.1)" fill="#6b6d6d"/>
          <g id="Group_340" data-name="Group 340">
            <circle id="Ellipse_193" data-name="Ellipse 193" cx="5.4" cy="5.4" r="5.4" transform="translate(212.1 292.2)" fill="#6b6d6d"/>
            <path id="Path_3939" data-name="Path 3939" d="M223,297.6a5.378,5.378,0,0,1-5.4,5.4,5.438,5.438,0,0,1-4.8-2.9,5.582,5.582,0,0,0,3.7,1.5,5.378,5.378,0,0,0,5.4-5.4,5.135,5.135,0,0,0-.6-2.5A5.259,5.259,0,0,1,223,297.6Z" fill="#6b6d6d" opacity="0.366"/>
          </g>
          <g id="Group_341" data-name="Group 341" opacity="0.332">
            <circle id="Ellipse_194" data-name="Ellipse 194" cx="3" cy="3" r="3" transform="translate(214.5 294.6)" fill="#f5fbff"/>
          </g>
          <g id="Group_342" data-name="Group 342">
            <path id="Path_3940" data-name="Path 3940" d="M286,347.7c2.1,1.8,6.9.7,6.4-2.7a2.98,2.98,0,0,0-2.4-2.4c-1.6-.3-3.1.7-4.7.7a13.807,13.807,0,0,1-2-.3,3.42,3.42,0,0,0-2,.1c-1.4.6-1.1,2.3-.2,3.2a4.28,4.28,0,0,0,2.9.8,3.352,3.352,0,0,1,1,0A1.524,1.524,0,0,1,286,347.7Z" fill="#6b6d6d"/>
          </g>
          <g id="Group_343" data-name="Group 343">
            <path id="Path_3941" data-name="Path 3941" d="M286,347.7a3.592,3.592,0,0,0-1-.7,1.7,1.7,0,0,0-1,0,3.814,3.814,0,0,1-2.9-.8c-.8-.7-1.2-2.1-.4-2.8a2.589,2.589,0,0,0,.7,1.1,4.28,4.28,0,0,0,2.9.8h1a2.286,2.286,0,0,1,1,.7c1.7,1.4,5.1,1,6.1-.9C292.7,348.4,288.1,349.4,286,347.7Z" fill="#6b6d6d"/>
          </g>
          <g id="Group_344" data-name="Group 344">
            <path id="Path_3942" data-name="Path 3942" d="M276,347.7c-2.1,1.8-6.9.7-6.4-2.7a2.98,2.98,0,0,1,2.4-2.4c1.6-.3,3.1.7,4.7.7a13.807,13.807,0,0,0,2-.3,3.42,3.42,0,0,1,2,.1c1.4.6,1.1,2.3.2,3.2a4.28,4.28,0,0,1-2.9.8,3.352,3.352,0,0,0-1,0C276.5,347.1,276.3,347.4,276,347.7Z" fill="#6b6d6d"/>
          </g>
          <g id="Group_345" data-name="Group 345" opacity="0.347">
            <path id="Path_3943" data-name="Path 3943" d="M280.8,346.2a4.28,4.28,0,0,1-2.9.8,3.352,3.352,0,0,0-1,0,2.286,2.286,0,0,0-1,.7c-1.9,1.6-6,.9-6.4-1.8,1.2,1.6,4.3,1.8,5.9.5a3.592,3.592,0,0,1,1-.7,1.7,1.7,0,0,1,1,0,3.814,3.814,0,0,0,2.9-.8,2.289,2.289,0,0,0,.8-1.7C282,344,281.6,345.4,280.8,346.2Z" fill="#6b6d6d"/>
          </g>
          <g id="Group_346" data-name="Group 346">
            <path id="Path_3944" data-name="Path 3944" d="M302,227.8c-.5,1.6-2.7,1.7-4.3,1.4a37.255,37.255,0,0,0-4.7-.4,11.187,11.187,0,0,0-3.6.5c-.2.1-.3.1-.5.2a11.051,11.051,0,0,1-3.1.9,14.084,14.084,0,0,1-3.5-.5,19.587,19.587,0,0,0-4.8-.5c-4.5,0-9,.8-13.4.3.1-.2.3-.3.4-.5,1.5-1.8,3-3.7,5.3-4.4a26.533,26.533,0,0,1,5.7-1.5,16.479,16.479,0,0,0,5.3-1.3,7.232,7.232,0,0,0,3.6-3.9c1-2.9-.7-6.4.6-9.2.7-1.6,2.2-2.8,2.6-4.5.5-2.2-1.1-4.1-2.1-6a31.455,31.455,0,0,1-2.6-5.6c-.8-2.8,0-5.8,1-8.5,7.1-18.7-8-53.9-8.4-54.8A69.458,69.458,0,0,1,290,155.7c1.4,5,.7,10.2,2.1,15,.8,2.7,2.3,5.1,2.8,7.8.9,5.3-2.5,10.6-1.9,15.9,0,.3.1.5.1.8a11.7,11.7,0,0,0,.5,2c1,3.2,2.7,6.2,3.2,9.6.9,5.9-.8,12.4,3.5,17.3C301.3,225.3,302.4,226.5,302,227.8Z" fill="#492f29"/>
          </g>
          <g id="Group_347" data-name="Group 347">
            <path id="Path_3945" data-name="Path 3945" d="M193.9,159.6a73.028,73.028,0,0,0-1.4,9.7v-1.2A50.23,50.23,0,0,1,193.9,159.6Z" fill="#492f29"/>
          </g>
          <g id="Group_348" data-name="Group 348">
            <path id="Path_3946" data-name="Path 3946" d="M195.5,154.1c-.2.6-.4,1.3-.7,2,.1-.5.3-1,.4-1.4Z" fill="#492f29"/>
          </g>
          <g id="Group_349" data-name="Group 349">
            <path id="Path_3947" data-name="Path 3947" d="M224.1,230.5c-.1,0-.2.1-.3.2-3-.1-6.1-.7-9.1.1-2.1.6-4,1.9-6.2,2-2,.2-4-.7-5.8-1.6-3.3-1.5-6-2.7-9-2.9h0a12.377,12.377,0,0,0-4.7.5c-.2.1-.4.1-.6.2a7.985,7.985,0,0,1-2.6.5,3.079,3.079,0,0,1-1.3-.3,2.574,2.574,0,0,1-1-2.2c.1-2.8,2.7-4.9,3.3-7.6.7-3.1-1.2-6.3-1.4-9.5v-1.3a1.268,1.268,0,0,1,.1-.6c.4-3.3,2.3-6.3,3.9-9.3,0-.1.1-.1.1-.2a19.553,19.553,0,0,0,1.2-2.6A38.655,38.655,0,0,0,193,182v-2.1a73.373,73.373,0,0,0-.5-8.1v-3.6c0-.6.1-1.1.1-1.7a50.864,50.864,0,0,1,1.2-6.8v-.1l.9-3.3c.1-.5.3-1,.4-1.4.3-1.2.7-2.3,1-3.4a55.618,55.618,0,0,1,3.5-8.8,46.738,46.738,0,0,1,2.7-4.9,56.123,56.123,0,0,1,14.9-16.2c-4.9,4.1-14.4,18.8-15.5,24.4-.6,3.1-.2,6.2-.7,9.3a52.339,52.339,0,0,1-2.6,9.6c-1.2,3.4-2.3,7.2-1.3,10.7.7,2.3,2.1,4.3,3.1,6.5a20.284,20.284,0,0,1,1.3,11.4c-.6,3.4-2.9,6.1-3.8,9.5a13.513,13.513,0,0,0,.4,8.2,7.606,7.606,0,0,0,2.5,3.6c.8.6,1.8,1,2.6,1.6a8.426,8.426,0,0,1,2.8,3.4,28.265,28.265,0,0,0,1.1,3.1,4.489,4.489,0,0,0,3.6,2.3c1.4.1,2.9-.5,4.3-.3C218.8,225.2,220.6,229.9,224.1,230.5Z" fill="#492f29"/>
          </g>
          <g id="Group_351" data-name="Group 351" opacity="0.579">
            <g id="Group_350" data-name="Group 350">
              <path id="Path_3948" data-name="Path 3948" d="M240.5,175.8a38.663,38.663,0,0,0-.3,4.8c-.1,1.6-.1,3.2-.1,4.9v2.4a2.543,2.543,0,0,0,.4,1.7c.9,1,2.2.3,2.9-.5.3-.4-.1-1.1-.6-.7-.3.2-1,.9-1.5.6-.4-.3-.2-1.4-.2-1.8v-7.4a23.807,23.807,0,0,0-.1-3.8c.1-.5-.4-.5-.5-.2Z" fill="#db9f58"/>
            </g>
          </g>
          <g id="Group_352" data-name="Group 352">
            <path id="Path_3949" data-name="Path 3949" d="M249.5,194.6a6.525,6.525,0,0,1-.8,2.2c-.1.2-.2.3-.2.5a13.735,13.735,0,0,1-1.3,2,5.916,5.916,0,0,1-5.6,1.8,6.209,6.209,0,0,1-3.2-2.2,9.835,9.835,0,0,1-2.1-3.7c-.4-1.2,1.3-.6,1.9-.5a19.53,19.53,0,0,0,3.4.3,16.455,16.455,0,0,0,6.6-1.2,1.445,1.445,0,0,1,.7-.2.749.749,0,0,1,.5.1A1.254,1.254,0,0,1,249.5,194.6Z" fill="#5b3e36"/>
          </g>
          <g id="Group_354" data-name="Group 354" opacity="0.579">
            <g id="Group_353" data-name="Group 353">
              <path id="Path_3950" data-name="Path 3950" d="M275.5,173.5a20.211,20.211,0,0,0-.6,3.4,13.66,13.66,0,0,0,0,3.5c0,.2.3.1.3,0,0-1.1,0-2.3.1-3.4s.3-2.2.4-3.4c0-.2-.2-.2-.2-.1Z" fill="#db9f58"/>
            </g>
          </g>
          <g id="Group_356" data-name="Group 356" opacity="0.579">
            <g id="Group_355" data-name="Group 355">
              <path id="Path_3951" data-name="Path 3951" d="M275.3,177.6c0-.1.1-.3.1-.4s.1-.2.2-.3a2.652,2.652,0,0,1,.5-.6,3.924,3.924,0,0,1,1.4-.8.257.257,0,0,0-.1-.5,2.9,2.9,0,0,0-1.5.9,3.039,3.039,0,0,0-.5.7,1926692637945.675,1926692637945.675,0,0,1-.2.8c-.2.3.1.4.1.2Z" fill="#db9f58"/>
            </g>
          </g>
          <g id="Group_357" data-name="Group 357" opacity="0.342">
            <path id="Path_3952" data-name="Path 3952" d="M308.5,394.3a4.47,4.47,0,0,1-.9,2.8,3.877,3.877,0,0,1-2.3.9c-12,2.3-24.3,4.7-36.5,3.6-4.2-.4-8.3-1.1-12.5-1.5-5.1-.5-10.3-.4-15.4-.4-5.2.1-10.5.1-15.7.2-1.6,0-14.5,1.2-14.3-.4.1-1.1,6.1-1.6,7.2-1.8,2.8-.6,5.6-1.3,8.5-2,15.6-3.8,31.2-7.6,45.9-14.1,7.9-3.5,14.9-8.1,19.1-15.9a61.575,61.575,0,0,0,5-13.8c1-4.4,2.8-8.7,3.8-13.2a236.074,236.074,0,0,0,4.7-25.1C305.8,331.1,309.3,384.8,308.5,394.3Z" fill="#a5c5d3"/>
          </g>
          <g id="Group_359" data-name="Group 359">
            <g id="Group_358" data-name="Group 358">
              <path id="Path_3953" data-name="Path 3953" d="M396,213.6a17.272,17.272,0,0,0-2.6,2.8,32.529,32.529,0,0,0-2.3,2.9,8.856,8.856,0,0,0-1.6,3.4,2.287,2.287,0,0,0,1.1,2.6c1.6.7,3.3-.5,4.3-1.7,1-1.1,2-2.3,2.9-3.5a25.205,25.205,0,0,0,2.4-3.3c.1-.2-.2-.3-.3-.2-.5.8-1.2,1.6-1.8,2.4-.9,1.1-1.8,2.3-2.8,3.4a7.35,7.35,0,0,1-3,2.5,2.03,2.03,0,0,1-1.7-.1,2.055,2.055,0,0,1-.8-1.8,7.656,7.656,0,0,1,1.4-3.2,24.283,24.283,0,0,1,2.4-3.2,32.175,32.175,0,0,0,2.4-2.8c.3-.2.1-.3,0-.2Z" fill="#db9c52"/>
            </g>
          </g>
          <g id="Group_361" data-name="Group 361">
            <g id="Group_360" data-name="Group 360">
              <path id="Path_3954" data-name="Path 3954" d="M392.1,225.5a2.272,2.272,0,0,0,.9,2.9c1.3.7,2.7-.2,3.7-1a19.206,19.206,0,0,0,2.9-2.8c.9-1,1.8-2,2.6-3,.1-.2-.2-.4-.3-.3a43.262,43.262,0,0,1-4.6,5c-.9.8-2.1,1.9-3.3,1.9a2.022,2.022,0,0,1-1.7-2.7c.1,0-.1-.1-.2,0Z" fill="#db9c52"/>
            </g>
          </g>
          <g id="Group_363" data-name="Group 363">
            <g id="Group_362" data-name="Group 362">
              <path id="Path_3955" data-name="Path 3955" d="M395.4,228.2a3.691,3.691,0,0,0,4,2.1c2.1-.3,3.7-2,5-3.4.2-.2-.1-.6-.3-.3-1.2,1.3-2.6,2.8-4.4,3.2a3.649,3.649,0,0,1-4-1.6c-.1-.2-.3-.1-.3,0Z" fill="#db9c52"/>
            </g>
          </g>
          <g id="Group_365" data-name="Group 365">
            <path id="Path_3956" data-name="Path 3956" d="M383.3,217.1a11.82,11.82,0,0,1,4.9-.6c1.9.3,3.6,1.7,5.5,2.1.4.1.8.2.9.5.2.3,0,.7-.1.9a4.751,4.751,0,0,1-2.4,2,9.425,9.425,0,0,1-5.5.8,7.578,7.578,0,0,1-4,2.6" fill="#f4c587"/>
            <g id="Group_364" data-name="Group 364">
              <path id="Path_3957" data-name="Path 3957" d="M383.3,217.1c1.2-.1,2.4-.5,3.6-.5a7.639,7.639,0,0,1,3.3.8c.9.4,1.7.8,2.6,1.2.4.2.8.2,1.3.4,1,.4.1,1.3-.3,1.7a8.51,8.51,0,0,1-6.1,2c-.5,0-.9-.2-1.2.2l-.9.9a7.607,7.607,0,0,1-2.8,1.5c-.4.1-.2.7.2.6a8.56,8.56,0,0,0,2.4-1.1,7.05,7.05,0,0,0,.9-.7c.2-.1.3-.3.5-.5a.713.713,0,0,1,.6-.3,10.913,10.913,0,0,0,5.6-1.2c.9-.5,3.4-2.4,1.9-3.5a1.613,1.613,0,0,0-.9-.3,8.8,8.8,0,0,1-1.5-.5,25.573,25.573,0,0,0-2.4-1.1,8.861,8.861,0,0,0-6.8.4Z" fill="#db9c52"/>
            </g>
          </g>
          <path id="Path_3958" data-name="Path 3958" d="M275.1,318.3l-24,84.8a3.593,3.593,0,0,1-4.4,2.5L184.4,388l-2.2-.6a3.593,3.593,0,0,1-2.5-4.4l24-84.8a3.593,3.593,0,0,1,4.4-2.5l61.5,17.4,3,.8A3.594,3.594,0,0,1,275.1,318.3Z" fill="#3f7289"/>
          <path id="Path_3959" data-name="Path 3959" d="M252,324.2l-1.7,5.9a1.028,1.028,0,0,1-1.2.7L216,321.3l-.6-.2a1.028,1.028,0,0,1-.7-1.2l1.7-5.9a1.028,1.028,0,0,1,1.2-.7l32.9,9.4.8.2A1.28,1.28,0,0,1,252,324.2Z" fill="#3f7289" opacity="0.336"/>
          <g id="Group_366" data-name="Group 366" opacity="0.336">
            <path id="Path_3960" data-name="Path 3960" d="M275.1,318.3l-24,84.8a3.593,3.593,0,0,1-4.4,2.5L184.4,388c18,1.1,37.1-2,51.6-13.4,17-13.4,24.4-35.3,31.3-55.9a27,27,0,0,1,2.4-5.6l3,.8A3.617,3.617,0,0,1,275.1,318.3Z" fill="#3f7289"/>
          </g>
          <g id="Group_367" data-name="Group 367">
            <path id="Path_3961" data-name="Path 3961" d="M253.6,370.8c-4.8-.3-10.8-2.5-14.4-5.7a7.119,7.119,0,0,1-2.6-5.2c0-2.6,1.9-4.8,3.4-7a32.83,32.83,0,0,0,3.5-6.7c1-2.6.9-3.4,3.9-2.8a34.183,34.183,0,0,1,12,4.9c5,3.3,6.4,9.1,5.2,14.8-.7,3.3-3,6.5-6.3,7.3A14.73,14.73,0,0,1,253.6,370.8Z" fill="#f4c587"/>
          </g>
          <g id="Group_368" data-name="Group 368">
            <path id="Path_3962" data-name="Path 3962" d="M189.8,342.6a130.239,130.239,0,0,0,21.4,12.6,247.52,247.52,0,0,0,24.5,10.1c1.7.6,3.7,1.1,5.1-.1a6.191,6.191,0,0,0,1.1-1.7,61.985,61.985,0,0,0,3.4-9.4,16.471,16.471,0,0,0,.7-7.6c-.7-4.2-3.8-5.7-7.2-7.4-4.2-2.1-8.5-4.3-12.7-6.6-8.3-4.5-22.5-13.9-28.9-21.4" fill="#f5fbff"/>
          </g>
          <path id="Path_3963" data-name="Path 3963" d="M248.5,197.3a13.735,13.735,0,0,1-1.3,2,5.916,5.916,0,0,1-5.6,1.8,6.209,6.209,0,0,1-3.2-2.2,9.925,9.925,0,0,1,6.5-2.1A13.61,13.61,0,0,1,248.5,197.3Z" fill="#d38467"/>
          <g id="Group_370" data-name="Group 370">
            <g id="Group_369" data-name="Group 369">
              <path id="Path_3964" data-name="Path 3964" d="M207.9,194.4a25.884,25.884,0,0,0-4,6.3,14.982,14.982,0,0,0-1.7,6.9,9.5,9.5,0,0,0,.9,3.4,30.487,30.487,0,0,0,1.9,3,7.526,7.526,0,0,1,.3,6.7c-1,2.3-3.3,5-1.6,7.6.5.7,1.7.3,1.4-.6-.8-2.3.9-4.3,1.8-6.3a9.4,9.4,0,0,0,.3-6.6c-.8-2.2-2.7-3.8-3.3-6a11.087,11.087,0,0,1,.8-6.7,62.429,62.429,0,0,1,3.7-7.3.321.321,0,0,0-.5-.4Z" fill="#492f29"/>
            </g>
          </g>
          <g id="Group_372" data-name="Group 372">
            <g id="Group_371" data-name="Group 371">
              <path id="Path_3965" data-name="Path 3965" d="M212.4,201.4c-2,3.2-3.4,6.9-1.8,10.6.4.8.8,1.6,1.2,2.5a5.708,5.708,0,0,1,.4,2.9,15.668,15.668,0,0,1-1.6,5.6,30.262,30.262,0,0,0-1.2,3.2c-.2,1-.6,2.6.2,3.4a.906.906,0,0,0,1.4-.2,1.943,1.943,0,0,0,.3-1.3,6.753,6.753,0,0,1,.2-1.4,26.722,26.722,0,0,1,.9-2.6,18.176,18.176,0,0,0,1.7-5.6,9.266,9.266,0,0,0-1.1-5.4c-.4-.8-.9-1.6-1.3-2.4a7.511,7.511,0,0,1-.5-2.6,13.4,13.4,0,0,1,1.7-6.2c.2-.5-.3-.8-.5-.5Z" fill="#492f29"/>
            </g>
          </g>
          <g id="Group_374" data-name="Group 374">
            <g id="Group_373" data-name="Group 373">
              <path id="Path_3966" data-name="Path 3966" d="M218.2,206.3a10.04,10.04,0,0,0-1,5.9c.3,1.9,1.6,3.4,1.9,5.3.3,1.7-.3,3.5-.7,5.1a13.319,13.319,0,0,0-.7,5.6c.2,1.1,1.9.8,1.9-.3a29.75,29.75,0,0,1,.9-5.2,15.434,15.434,0,0,0,.6-5.2,9.239,9.239,0,0,0-.8-2.7,19.65,19.65,0,0,1-1.3-2.5,9.233,9.233,0,0,1-.3-2.9c.1-1,.3-2,.3-2.9.1-.4-.5-.6-.8-.2Z" fill="#492f29"/>
            </g>
          </g>
          <g id="Group_376" data-name="Group 376">
            <g id="Group_375" data-name="Group 375">
              <path id="Path_3967" data-name="Path 3967" d="M263,208.3a11.678,11.678,0,0,0-.9,5.2,7.323,7.323,0,0,0,.8,2.5c.5.8,1.2,1.4,1.8,2.2,1.1,1.4,1,3.2.9,4.9,0,1.6-.3,3.9.9,5.2a.693.693,0,0,0,1.2-.5c0-.9-.3-1.7-.3-2.6a20.9,20.9,0,0,1,.1-2.5,9.1,9.1,0,0,0-.8-4.9,18.114,18.114,0,0,0-1.8-2.1,5.93,5.93,0,0,1-1.2-2,8.858,8.858,0,0,1,0-5.1.381.381,0,1,0-.7-.3Z" fill="#492f29"/>
            </g>
          </g>
          <g id="Group_378" data-name="Group 378">
            <g id="Group_377" data-name="Group 377">
              <path id="Path_3968" data-name="Path 3968" d="M269.2,199.1a17.275,17.275,0,0,0,0,6,15.654,15.654,0,0,0,2.5,5,9.279,9.279,0,0,1,1.7,5.3c0,2-.6,4-.5,6a5.825,5.825,0,0,0,.9,2.9,8.229,8.229,0,0,1,1.2,2.5.593.593,0,0,0,1.1.1,2.556,2.556,0,0,0-.1-2.4,10.077,10.077,0,0,1-1.2-2.3,7.033,7.033,0,0,1-.1-2.9l.3-3a11.207,11.207,0,0,0-1.1-5.7c-.8-1.6-2.1-3.1-2.9-4.7-1.1-2.1-1-4.6-1.1-6.9,0-.4-.6-.4-.7.1Z" fill="#492f29"/>
            </g>
          </g>
          <g id="Group_380" data-name="Group 380">
            <g id="Group_379" data-name="Group 379">
              <path id="Path_3969" data-name="Path 3969" d="M276.4,188.7a17.857,17.857,0,0,0,.1,6.1c.5,2,2.2,3.5,2.7,5.5,1.2,4.3-.9,8.8-.7,13.1a16.518,16.518,0,0,0,.5,3.8,17.385,17.385,0,0,0,1.1,3.9.644.644,0,0,0,1.2-.3,12.849,12.849,0,0,0-.7-3.4c-.2-1.1-.4-2.2-.5-3.4a26.1,26.1,0,0,1,.6-6.8,22.2,22.2,0,0,0,.2-6.3,12.239,12.239,0,0,0-.9-2.7c-.5-.9-1.2-1.7-1.7-2.6-1.2-2.1-1.1-4.6-1.1-6.9-.2-.4-.8-.4-.8,0Z" fill="#492f29"/>
            </g>
          </g>
          <g id="Group_382" data-name="Group 382" opacity="0.342">
            <g id="Group_381" data-name="Group 381">
              <path id="Path_3970" data-name="Path 3970" d="M199.2,296.2c-1,3-1.8,6-2.6,9a9.026,9.026,0,0,0-.5,4,8.539,8.539,0,0,0,1.8,3.7c.4.6,1.5,0,1.1-.6a7.339,7.339,0,0,1-1.8-3.5,11.28,11.28,0,0,1,.5-4.1c.7-2.8,1.4-5.6,2-8.5.1-.3-.4-.4-.5,0Z" fill="#a5c5d3"/>
            </g>
          </g>
        </g>
      </g>
      <g id="Group_389" data-name="Group 389">
        <g id="Group_386" data-name="Group 386">
          <g id="Group_385" data-name="Group 385">
            <path id="Path_3972" data-name="Path 3972" d="M156.6,213.1c.4,5.4-3.4,10.1-6.4,14.2s-6.1,8.3-8,13a20.809,20.809,0,0,0-1.3,12.3,15.027,15.027,0,0,0,2.2,5.4,13.9,13.9,0,0,0,4.6,4.1,7.879,7.879,0,0,1,2.8,2.3,6.154,6.154,0,0,1,.9,2.9,13.443,13.443,0,0,1-1.8,6.4,43.466,43.466,0,0,1-4.3,6c-1.6,2-3.3,4-4.8,6.1a35.579,35.579,0,0,0-6.8,13.6,18.594,18.594,0,0,0,2.1,14,20.365,20.365,0,0,0,10.6,7.6c5.2,1.7,10.9,1.6,16.3,1.1,1.5-.1,2.9-.3,4.4-.5a.251.251,0,0,0,0-.5c-5.8.4-11.5,1.1-17.3-.1a21.634,21.634,0,0,1-11.9-6.3c-3.4-3.7-4.4-8.8-3.7-13.7.8-5.2,3.3-9.8,6.2-14,1.5-2.1,3.2-4.2,4.8-6.2,1.5-1.9,3.1-3.8,4.4-5.8,2-3.1,3.9-7.9,1.5-11.3-1.3-1.9-3.6-2.5-5.3-4a12.052,12.052,0,0,1-3.4-4.9,18.582,18.582,0,0,1-.3-12.1c1.4-4.8,4.3-9.1,7.2-13.2s6.4-8.2,7.5-13.2a10.333,10.333,0,0,0,.2-3.5c-.1.2-.4.2-.4.3Z" fill="#6c858e"/>
          </g>
        </g>
        <g id="Group_387" data-name="Group 387">
          <path id="Path_3973" data-name="Path 3973" d="M360.5,363a40.118,40.118,0,0,0-4.2,6.5" fill="none" stroke="#6c858e" stroke-linecap="round" stroke-linejoin="round" stroke-miterlimit="10" stroke-width="1"/>
          <path id="Path_3974" data-name="Path 3974" d="M361,367.4a11.667,11.667,0,0,0-2.6,4.4" fill="none" stroke="#6c858e" stroke-linecap="round" stroke-linejoin="round" stroke-miterlimit="10" stroke-width="1"/>
        </g>
        <g id="Group_388" data-name="Group 388">
          <path id="Path_3975" data-name="Path 3975" d="M146.7,357.9a47.228,47.228,0,0,0,5-5.9" fill="none" stroke="#6c858e" stroke-linecap="round" stroke-linejoin="round" stroke-miterlimit="10" stroke-width="1"/>
          <path id="Path_3976" data-name="Path 3976" d="M146.7,353.4a13.78,13.78,0,0,0,3.2-4" fill="none" stroke="#6c858e" stroke-linecap="round" stroke-linejoin="round" stroke-miterlimit="10" stroke-width="1"/>
        </g>
      </g>
    </g>
  </g>
</svg>
