<svg xmlns="http://www.w3.org/2000/svg" width="36.003" height="35.998" viewBox="0 0 36.003 35.998">
  <path id="search-icon" d="M-1441.319-192a1.691,1.691,0,0,1-1.2-.49l-1.99-1.99a1.68,1.68,0,0,1-.5-1.2,1.662,1.662,0,0,1,.5-1.185l7.01-7.016a1.678,1.678,0,0,1,1.2-.492h1.147a14.48,14.48,0,0,1-3.094-9,14.53,14.53,0,0,1,4.283-10.342A14.53,14.53,0,0,1-1423.622-228a14.53,14.53,0,0,1,10.342,4.283A14.53,14.53,0,0,1-1409-213.375a14.518,14.518,0,0,1-4.37,10.429l-3.2-3.967a9.538,9.538,0,0,0,2.509-6.461,9.573,9.573,0,0,0-9.562-9.563,9.573,9.573,0,0,0-9.562,9.563,9.573,9.573,0,0,0,9.563,9.562,9.528,9.528,0,0,0,5.29-1.592l3.167,3.964a14.528,14.528,0,0,1-8.457,2.69,14.479,14.479,0,0,1-9-3.094v1.147a1.681,1.681,0,0,1-.491,1.2l-7.01,7.01A1.691,1.691,0,0,1-1441.319-192Zm18.822-14.623h-2.25a.845.845,0,0,1-.843-.844v-3.937h-3.937a.845.845,0,0,1-.844-.843v-2.25a.845.845,0,0,1,.844-.844h3.938v-3.937a.844.844,0,0,1,.843-.843h2.25a.845.845,0,0,1,.844.843v3.938h3.938a.845.845,0,0,1,.843.844v2.25a.844.844,0,0,1-.843.843h-3.937v3.938A.845.845,0,0,1-1422.5-206.625Z" transform="translate(1445 228)" fill="#00ab78"/>
</svg>
