<svg xmlns="http://www.w3.org/2000/svg" width="30.001" height="30" viewBox="0 0 30.001 30">
  <g id="smiley-icon" transform="translate(-473.629 -241.002)">
    <path id="Subtraction_1" data-name="Subtraction 1" d="M-1430.015-198a14.882,14.882,0,0,1-10.6-4.389A14.911,14.911,0,0,1-1445-213a14.91,14.91,0,0,1,4.388-10.61,14.882,14.882,0,0,1,10.6-4.389,14.928,14.928,0,0,1,10.619,4.389A14.894,14.894,0,0,1-1415-213a14.98,14.98,0,0,1-3.685,9.843l-2.087-2.169A12.016,12.016,0,0,0-1418-213a12.013,12.013,0,0,0-12-12,12.013,12.013,0,0,0-12,12,12.014,12.014,0,0,0,12,12,12.025,12.025,0,0,0,7.58-2.7l2.071,2.173A15.037,15.037,0,0,1-1430.015-198Zm.015-6.75a8.148,8.148,0,0,1-4.693-1.477,8.282,8.282,0,0,1-2.972-3.772h15.331a8.282,8.282,0,0,1-2.972,3.772A8.148,8.148,0,0,1-1430-204.75Zm3.089-9.749h0l-1.588-1.59,3.18-3.18,3.18,3.18-1.589,1.59-1.591-1.59-1.59,1.59Zm-9.36,0h0l-1.588-1.59,3.18-3.18,3.18,3.18-1.589,1.59-1.591-1.59-1.59,1.59Z" transform="translate(1918.63 469.002)" fill="#6a3f00"/>
  </g>
</svg>
