<svg xmlns="http://www.w3.org/2000/svg" width="27.023" height="27.023" viewBox="0 0 27.023 27.023">
  <g id="time-icon" transform="translate(-436.904 -242.49)">
    <path id="Subtraction_2" data-name="Subtraction 2" d="M-1430.476-200.976a13.415,13.415,0,0,1-5.268-1.067,13.742,13.742,0,0,1-4.32-2.88,13.657,13.657,0,0,1-2.88-4.3,13.068,13.068,0,0,1-1.056-5.243,13.3,13.3,0,0,1,1.823-6.792,13.57,13.57,0,0,1,4.932-4.932,13.245,13.245,0,0,1,6.768-1.812,13.358,13.358,0,0,1,5.244,1.067,13.715,13.715,0,0,1,4.308,2.88,13.32,13.32,0,0,1,2.88,4.32,13.325,13.325,0,0,1,1.067,5.269,13.356,13.356,0,0,1-1.067,5.243,13.736,13.736,0,0,1-2.086,3.439l-2.081-2.163a10.813,10.813,0,0,0,.855-1.251,10.3,10.3,0,0,0,1.427-5.268,10.323,10.323,0,0,0-1.427-5.28,10.638,10.638,0,0,0-3.852-3.852,10.3,10.3,0,0,0-5.269-1.416,10.234,10.234,0,0,0-5.268,1.416,10.828,10.828,0,0,0-3.864,3.852,10.209,10.209,0,0,0-1.417,5.28,10.246,10.246,0,0,0,3.109,7.416,10.194,10.194,0,0,0,7.439,3.108,10.236,10.236,0,0,0,5.269-1.416,11.357,11.357,0,0,0,1.359-.94l2.066,2.167a13.823,13.823,0,0,1-3.449,2.084A13.358,13.358,0,0,1-1430.476-200.976Zm-4.86-9.707a.94.94,0,0,1-.864-.5,1.073,1.073,0,0,1-.084-.769,1.022,1.022,0,0,1,.456-.612l4.307-2.507v-7.38a.966.966,0,0,1,.288-.708.969.969,0,0,1,.708-.288.969.969,0,0,1,.708.288.967.967,0,0,1,.288.708v8a.991.991,0,0,1-.2.6.921.921,0,0,1-.5.347l-4.608,2.677A.852.852,0,0,1-1435.336-210.684Z" transform="translate(1880.904 470.49)" fill="#9d00a8"/>
  </g>
</svg>
